<?xml version="1.0" encoding="utf-8"?>
<!-- Generator: Adobe Illustrator 25.2.3, SVG Export Plug-In . SVG Version: 6.00 Build 0)  -->
<svg version="1.1" id="Calque_1" xmlns="http://www.w3.org/2000/svg" xmlns:xlink="http://www.w3.org/1999/xlink" x="0px" y="0px"
	 viewBox="0 0 272 166" style="enable-background:new 0 0 272 166;" xml:space="preserve">
<style type="text/css">
	.st0{fill: blue;}
</style>
<g>
	<g>
		<path class="st0" d="M215.5,70.9c0-0.6,0-1,0-1.3c0-15.6,0-31.3,0-46.9c0-1.1,0.3-1.5,1.4-1.5c5.4,0.1,10.7-0.1,16.1,0.1
			c4.8,0.1,9.3,1.5,12.7,4.9c2.9,2.9,4.6,6.5,5.6,10.5c0.9,3.6,0.8,7.2,0.8,10.9c0,5-0.8,9.9-3.2,14.4c-2.5,4.7-6.4,7.4-11.5,8.4
			c-1.8,0.4-3.7,0.5-5.6,0.5c-5,0.1-9.9,0-14.9,0C216.5,70.9,216.1,70.9,215.5,70.9z M226.1,62.5c2.3,0,4.5,0.1,6.7,0
			c2.3-0.1,4.1-1.1,5.5-2.9c1.9-2.5,2.6-5.3,2.9-8.3c0.6-4.5,0.5-8.9-0.5-13.3c-0.9-3.8-2.7-7-6.8-7.9c-2.5-0.5-5.1-0.4-7.7-0.6
			C226.1,40.6,226.1,51.5,226.1,62.5z"/>
		<path class="st0" d="M114.5,70.9c-2,0-3.9,0-5.8,0c-1.3,0-2.6-0.1-3.8,0c-1,0.1-1.2-0.3-1.2-1.2c0-6.2,0-12.4,0-18.6
			c0-0.4,0-0.8,0-1.2c-4.6,0-9.1,0-13.7,0c0,7,0,13.9,0,21c-3.5,0-7,0-10.5,0c0-16.5,0-32.9,0-49.5c0.3,0,0.7-0.1,1-0.1
			c2.8,0,5.5,0,8.3,0c1,0,1.2,0.3,1.2,1.2c0,5.8,0,11.5,0,17.3c0,0.4,0,0.9,0,1.4c4.6,0,9.1,0,13.7,0c0-0.3,0-0.6,0-1
			c0-5.9,0-11.8,0-17.6c0-0.9,0.3-1.3,1.2-1.2c2.8,0.1,5.6,0,8.4,0c0.8,0,1.2,0.2,1.2,1.1c0,15.4,0,30.8,0,46.2
			C114.5,69.3,114.5,70,114.5,70.9z"/>
		<path class="st0" d="M42.8,120.6c-3.1,0-5.9,0-8.7,0c0-2.5,0-4.8,0-7.3c5.9,0,11.8,0,17.9,0c0,9.1,0,18.2,0,27.5c-2,0-4,0-6.2,0
			c-0.4-1.9-0.7-3.9-1.1-6c-0.5,0.9-0.9,1.7-1.4,2.4c-1.8,2.6-4.4,4.1-7.4,4.5c-4.3,0.6-8.4-0.1-12.1-2.6c-3.4-2.3-5.5-5.5-7-9.2
			c-2-5-2.5-10.2-2.3-15.5c0.1-3.8,0.6-7.6,1.8-11.2c2.5-6.9,7-11.7,14.5-12.9c5.1-0.8,10-0.3,14.4,2.7c3.6,2.5,5.5,6.1,6.4,10.3
			c0.1,0.3,0.2,0.7,0.2,1c0,0.4,0,0.7,0,1.2c-3.3,0.5-6.6,0.9-9.8,1.4c-0.5-1.7-0.8-3.3-1.4-4.7c-2-4.5-8.2-4.4-11.1-1.8
			c-2.3,2.1-3.3,4.9-3.5,7.8c-0.4,3.9-0.6,7.8-0.5,11.7c0.1,3.8,0.7,7.6,3.1,10.7c1.6,2.2,3.9,3.1,6.6,2.6c4.4-0.8,6.7-3.3,7.3-7.8
			C42.7,123.8,42.7,122.2,42.8,120.6z"/>
		<path class="st0" d="M207,70.9c-3.7,0-7.2,0-10.7,0c-0.2,0-0.6-0.5-0.7-0.8c-0.7-2.5-1.3-4.9-1.9-7.4c-0.2-0.6-0.4-0.9-1.1-0.9
			c-4.5,0-9,0-13.6,0c-0.8,2.7-1.6,5.4-2.3,8.1c-0.2,0.8-0.6,1-1.4,1c-3.1,0-6.2,0-9.5,0c0.4-1.3,0.7-2.6,1.1-3.8
			c3.1-9.8,6.2-19.7,9.3-29.5c1.6-5.1,3.2-10.3,4.8-15.4c0.2-0.7,0.6-1,1.4-1c2.6,0.1,5.1,0.1,7.7,0c1,0,1.4,0.3,1.7,1.3
			c2.3,7.6,4.8,15.1,7.2,22.7c2.4,7.7,4.9,15.5,7.3,23.3C206.5,69.2,206.7,70,207,70.9z M181.2,53.6c3.4,0,6.7,0,10,0
			c-1.7-6.6-3.3-13.2-4.9-19.8C184.6,40.3,182.9,46.9,181.2,53.6z"/>
		<path class="st0" d="M159.4,70.9c-10.5,0-20.8,0-31.2,0c0-0.4,0-0.8,0-1.2c0-15.6,0-31.3,0-46.9c0-1.2,0.3-1.5,1.5-1.5
			c9.4,0.1,18.9,0,28.3,0c1.1,0,1.4,0.3,1.4,1.4c-0.1,2.4,0,4.7,0,7.2c-6.9,0-13.7,0-20.6,0c0,3.7,0,7.2,0,10.8
			c0,0.2,0.4,0.7,0.7,0.7c4.7,0,9.5,0,14.2,0c0.6,0,1.2,0,1.8,0c0,2.6,0,5,0,7.4c0,0.9-0.6,0.8-1.2,0.8c-2.8,0-5.6,0-8.4,0
			c-2.3,0-4.7,0-7.1,0c0,4.3,0,8.4,0,12.8c0.5,0,0.9,0,1.3,0c6,0,11.9,0,17.9,0c1.1,0,1.4,0.3,1.4,1.3
			C159.3,66,159.4,68.4,159.4,70.9z"/>
		<path class="st0" d="M226.7,126.3c0.7,2.1,1.2,4,2.1,5.7c1.2,2.4,4.1,2.9,6.3,2.6c2.7-0.3,4.4-2,5.1-4.6c2.7,0.3,5.3,0.6,8.1,1
			c-0.2,1.8-1,3.4-2,4.8c-2,3-4.9,4.9-8.5,5.5c-4.1,0.8-8,0.4-11.8-1.5c-4.1-2.1-6.4-5.6-7.5-9.9c-1.4-5.8-1.3-11.6,1.7-16.9
			c2.3-4.2,6-6.6,10.8-7.4c3.3-0.5,6.5-0.3,9.5,1.1c4.6,2.1,7.1,5.9,8.1,10.7c0.6,2.8,0.7,5.7,0.2,8.8
			C241.6,126.3,234.3,126.3,226.7,126.3z M239.9,120.3c-0.1-6.8-3.7-8.2-7-7.9c-3.4,0.3-6,4.2-5.4,7.9c0.3,0,0.5,0,0.8,0
			C232.1,120.3,235.9,120.3,239.9,120.3z"/>
		<path class="st0" d="M151.2,126.4c0.7,2,1.1,3.9,1.9,5.5c1.2,2.4,3.6,3,6.1,2.8c2.6-0.2,4.4-1.6,5.2-4.1c0.1-0.2,0.1-0.4,0.2-0.6
			c2.7,0.3,5.3,0.6,8.1,1c-0.2,0.7-0.3,1.4-0.6,2.1c-2,4.8-5.6,7.6-10.8,8.4c-4.5,0.7-8.7,0.1-12.6-2.6c-3.1-2.2-5-5.3-5.9-8.9
			c-1.2-4.6-1.2-9.3,0.4-13.9c2-5.9,6-9.4,12.2-10.4c4.1-0.6,8-0.1,11.5,2.2c3.4,2.3,5.4,5.6,6.1,9.6c0.4,2.3,0.4,4.7,0.5,7.1
			c0.1,1.5-0.2,1.6-1.6,1.6c-6.6,0-13.1,0-19.7,0C152,126.3,151.8,126.3,151.2,126.4z M164.1,120.3c0.3-3.2-0.7-5.9-3-7.1
			c-2.1-1.1-4.4-1.1-6.4,0.4c-2.3,1.6-3,4-3,6.8C155.9,120.3,159.9,120.3,164.1,120.3z"/>
		<path class="st0" d="M92.2,131c-0.3,2.2-1.3,4.1-2.7,5.7c-3.8,4.4-8.7,5.4-14.2,4.8c-3.5-0.4-6.5-1.8-9-4.3
			c-2.4-2.4-3.6-5.4-4.2-8.7c-0.4-2.1-0.5-4.3-0.4-6.4c0.2-4.7,1.5-9.1,5.1-12.5c2.7-2.6,6.1-4,9.9-4.1c3.6-0.2,7.1,0.5,10.1,2.7
			c3.1,2.3,5.1,5.4,5.7,9.1c0.5,2.6,0.4,5.4,0.5,8.1c0.1,0.9-0.5,1-1.2,1c-6.7,0-13.3,0-20,0c-0.2,0-0.3,0-0.4,0
			c-0.5,3,1.1,7.3,4.6,8.1c3.4,0.8,6.7,0.3,8.2-4.4C86.8,130.3,89.4,130.7,92.2,131z M84,120.3c-0.4-2.6-0.4-5.3-3-6.9
			c-2.1-1.3-4.3-1.3-6.4,0c-2.6,1.5-3.2,4.1-3.4,7C75.6,120.3,79.7,120.3,84,120.3z"/>
		<path class="st0" d="M133,140.7c-3.2,0-6.2,0-9.4,0c0-0.5,0-0.9,0-1.3c0-6.5,0-13,0-19.6c0-1-0.2-2-0.5-3c-1-4.1-5.9-4.5-8.6-2.1
			c-2,1.8-2.4,4.2-2.4,6.7c-0.1,6.4,0,12.8,0,19.3c-3.1,0-6.1,0-9.4,0c0-0.4,0-0.8,0-1.2c0-6.5,0-13,0-19.6c0-3.7-0.1-7.4-0.2-11.1
			c0-0.7-0.2-1.5-0.3-2.3c3.1,0,6,0,9.1,0c0.1,1.4,0.2,2.8,0.3,4.4c1.5-2.9,3.8-4.3,6.6-5c3.5-0.9,7-0.5,10,1.5
			c2.7,1.8,4,4.5,4.5,7.6c0.3,1.9,0.3,3.8,0.3,5.7c0,6.3,0,12.6,0,18.8C133,139.8,133,140.2,133,140.7z"/>
		<path class="st0" d="M178.8,106.4c3.2,0,6.3,0,9.5,0c0.3,0,0.7,0.4,0.8,0.7c2.1,7.1,4.2,14.2,6.3,21.2c0.1,0.4,0.2,0.8,0.3,1.2
			c2.3-7.7,4.6-15.4,6.9-23.1c3.3,0,6.5,0,9.8,0c-1.8,4.9-3.6,9.8-5.4,14.7c-2.3,6.2-4.6,12.4-6.8,18.6c-0.3,0.9-0.7,1-1.5,1
			c-2,0-4.1-0.1-6.1,0c-1,0.1-1.5-0.3-1.8-1.2c-2-5.5-4-11-6-16.5c-2-5.4-3.9-10.8-5.9-16.2C178.9,106.8,178.9,106.6,178.8,106.4z"
			/>
		<path class="st0" d="M18.1,47.8c0-1.3,0-2.5,0-3.9c15.1,0,30.2,0,45.4,0c0,1.2,0,2.5,0,3.9C48.4,47.8,33.3,47.8,18.1,47.8z"/>
		<path class="st0" d="M168.3,99.1c-0.7,1.3-1.3,2.5-1.9,3.8c-6-2.3-11.9-4.6-18-7c1.1-2.5,2.2-4.9,3.4-7.5
			C157.4,92.1,162.8,95.6,168.3,99.1z"/>
	</g>
</g>
</svg>
