<?xml version="1.0" encoding="UTF-8" standalone="no"?>
<!-- Created with Inkscape (http://www.inkscape.org/) -->

<svg
   width="236.74135mm"
   height="43.767727mm"
   viewBox="0 0 236.74135 43.767728"
   version="1.1"
   id="svg1"
   xml:space="preserve"
   xmlns:inkscape="http://www.inkscape.org/namespaces/inkscape"
   xmlns:sodipodi="http://sodipodi.sourceforge.net/DTD/sodipodi-0.dtd"
   xmlns="http://www.w3.org/2000/svg"
   xmlns:svg="http://www.w3.org/2000/svg"><sodipodi:namedview
     id="namedview1"
     pagecolor="#ffffff"
     bordercolor="#666666"
     borderopacity="1.0"
     inkscape:showpageshadow="2"
     inkscape:pageopacity="0.0"
     inkscape:pagecheckerboard="0"
     inkscape:deskcolor="#d1d1d1"
     inkscape:document-units="mm"><inkscape:page
       x="0"
       y="7.0390251e-17"
       width="236.74135"
       height="43.767731"
       id="page1"
       margin="0"
       bleed="0" /></sodipodi:namedview><defs
     id="defs1" /><g
     id="g1"
     inkscape:groupmode="layer"
     inkscape:label="1"
     transform="matrix(0.26458333,0,0,0.26458334,-310.87398,-5.3060648)"><g
       id="group-R5"
       transform="translate(1072.314,-294.79093)"
       inkscape:export-filename="group-R5.svg"
       inkscape:export-xdpi="300"
       inkscape:export-ydpi="300"><path
         id="path3"
         d="M 774.141,2355.12 H 3632.51 v 410.52 H 774.141 Z"
         style="fill:none;stroke:#231f20;stroke-width:8.64;stroke-linecap:butt;stroke-linejoin:miter;stroke-miterlimit:4;stroke-dasharray:none;stroke-opacity:1"
         transform="matrix(0.13333333,0,0,-0.13333333,0,793.70667)" /><path
         id="path5"
         d="m 3632.64,2355.12 h 216.31 v 410.52 h -216.31 z"
         style="fill:none;stroke:#231f20;stroke-width:8.64;stroke-linecap:butt;stroke-linejoin:miter;stroke-miterlimit:4;stroke-dasharray:none;stroke-opacity:1"
         transform="matrix(0.13333333,0,0,-0.13333333,0,793.70667)" /><path
         id="path7"
         d="m 3848.98,2355.12 h 148.2 v 410.52 h -148.2 z"
         style="fill:none;stroke:#231f20;stroke-width:8.64;stroke-linecap:butt;stroke-linejoin:miter;stroke-miterlimit:4;stroke-dasharray:none;stroke-opacity:1"
         transform="matrix(0.13333333,0,0,-0.13333333,0,793.70667)" /><path
         id="path8"
         d="m 3372.57,2529.47 v 33.85 c 0,14.12 3.97,25.5 11.91,34.13 7.95,8.63 18.79,12.95 32.52,12.95 6.87,0 13.1,-1.38 18.69,-4.12 5.59,-2.75 10.25,-6.67 13.98,-11.77 l 3.82,12.66 h 15.01 v -123.3 c 0,-17.85 -4.17,-31.24 -12.51,-40.18 -8.34,-8.91 -20.84,-13.39 -37.52,-13.39 -4.7,0 -9.71,0.5 -15,1.48 -5.3,0.98 -10.99,2.45 -17.07,4.41 l 6.18,16.49 c 4.9,-1.77 9.51,-3.05 13.83,-3.83 4.31,-0.78 8.34,-1.18 12.06,-1.18 10.6,0 18.35,2.8 23.25,8.38 4.9,5.6 7.36,14.87 7.36,27.82 v 75.33 c 0,10.59 -2.6,18.92 -7.8,25.01 -5.2,6.08 -12.31,9.12 -21.33,9.12 -9.23,0 -16.19,-2.55 -20.9,-7.65 -4.71,-5.1 -7.06,-12.56 -7.06,-22.36 v -33.85 c 0,-9.8 2.35,-17.31 7.06,-22.51 4.71,-5.19 11.38,-7.79 20.01,-7.79 2.55,0 5.05,0.29 7.51,0.88 2.45,0.58 4.95,1.47 7.5,2.65 l 6.77,-12.95 c -3.34,-2.36 -7.11,-4.16 -11.33,-5.44 -4.22,-1.28 -8.59,-1.92 -13.1,-1.92 -13.93,0 -24.71,4.17 -32.37,12.51 -7.65,8.33 -11.47,19.87 -11.47,34.57 m -71.8,77.7 4.41,-15.01 c 3.73,5.89 8.43,10.39 14.13,13.53 5.68,3.14 11.96,4.71 18.83,4.71 3.72,0 7.4,-0.39 11.04,-1.17 3.62,-0.79 6.91,-1.96 9.85,-3.54 l -7.94,-17.07 c -2.55,1.18 -5.15,2.06 -7.8,2.65 -2.65,0.59 -5.35,0.89 -8.09,0.89 -9.03,0 -16.29,-3.2 -21.78,-9.56 -5.49,-6.39 -8.24,-15.06 -8.24,-26.05 v -70.93 h -19.42 v 121.55 z m -74.45,-73.58 v 73.58 h 19.42 v -121.55 h -15.01 l -3.82,12.95 c -3.93,-5.29 -8.74,-9.3 -14.43,-12.06 -5.69,-2.74 -12.06,-4.12 -19.12,-4.12 -13.93,0 -24.68,4.22 -32.23,12.66 -7.55,8.43 -11.32,19.91 -11.32,34.42 v 77.7 h 19.42 v -77.7 c 0,-9.8 2.3,-17.26 6.91,-22.36 4.61,-5.1 11.33,-7.65 20.16,-7.65 9.41,0 16.77,3.04 22.07,9.12 5.3,6.08 7.95,14.43 7.95,25.01 m -130.37,-2.94 v 31.49 c 0,10.4 -2.45,18.25 -7.35,23.54 -4.91,5.3 -12.17,7.95 -21.78,7.95 -9.62,0 -16.88,-2.65 -21.78,-7.95 -4.9,-5.29 -7.35,-13.14 -7.35,-23.54 v -31.49 c 0,-10.4 2.45,-18.24 7.35,-23.54 4.9,-5.29 12.16,-7.94 21.78,-7.94 9.61,0 16.87,2.65 21.78,7.94 4.9,5.3 7.35,13.14 7.35,23.54 m -77.69,0 v 31.49 c 0,15.11 4.22,26.92 12.65,35.46 8.44,8.53 20.41,12.8 35.91,12.8 15.5,0 27.46,-4.27 35.9,-12.8 8.43,-8.54 12.65,-20.35 12.65,-35.46 v -31.49 c 0,-15.1 -4.22,-26.92 -12.65,-35.45 -8.44,-8.54 -20.4,-12.81 -35.9,-12.81 -15.5,0 -27.47,4.27 -35.91,12.81 -8.43,8.53 -12.65,20.35 -12.65,35.45 m -128.89,-45.03 v 174.81 h 19.43 v -126.84 c 0,-10.58 2.59,-18.93 7.79,-25.01 5.2,-6.08 12.31,-9.12 21.34,-9.12 9.22,0 16.18,2.55 20.89,7.65 4.71,5.1 7.07,12.56 7.07,22.36 v 33.85 c 0,10 -2.21,17.55 -6.63,22.66 -4.41,5.09 -10.94,7.65 -19.57,7.65 -2.55,0 -5.25,-0.3 -8.09,-0.89 -2.84,-0.58 -5.45,-1.47 -7.8,-2.64 l -6.77,12.95 c 3.92,2.35 8.04,4.16 12.36,5.44 4.32,1.28 8.63,1.91 12.95,1.91 13.73,0 24.33,-4.12 31.78,-12.35 7.46,-8.25 11.18,-19.83 11.18,-34.73 v -33.85 c 0,-14.12 -3.97,-25.5 -11.91,-34.13 -7.95,-8.63 -18.79,-12.95 -32.52,-12.95 -6.87,0 -13.09,1.38 -18.69,4.12 -5.59,2.76 -10.25,6.67 -13.98,11.77 l -3.82,-12.66 z m -101.81,68.58 c -4.13,3.13 -7.07,6.56 -8.83,10.29 -1.77,3.73 -2.65,8.15 -2.65,13.24 0,9.61 3.87,17.47 11.62,23.55 7.75,6.07 17.41,9.12 28.99,9.12 7.06,0 14.02,-0.78 20.89,-2.35 6.86,-1.58 13.24,-3.83 19.13,-6.77 l -7.65,-16.18 c -6.08,2.94 -11.68,5.05 -16.77,6.33 -5.11,1.27 -10.21,1.9 -15.31,1.9 -6.67,0 -11.91,-1.37 -15.74,-4.11 -3.83,-2.76 -5.74,-6.48 -5.74,-11.19 0,-3.14 0.74,-5.84 2.21,-8.09 1.47,-2.25 4.06,-4.46 7.79,-6.62 1.96,-1.18 5.05,-2.79 9.28,-4.85 4.21,-2.06 6.81,-3.29 7.79,-3.69 13.74,-6.67 23.11,-12.9 28.11,-18.69 5,-5.78 7.5,-12.79 7.5,-21.03 0,-10.01 -3.97,-17.95 -11.92,-23.84 -7.94,-5.89 -18.49,-8.83 -31.63,-8.83 -6.28,0 -12.66,0.64 -19.13,1.92 -6.47,1.28 -13.44,3.38 -20.89,6.32 l 6.18,16.48 c 6.47,-2.55 12.45,-4.41 17.95,-5.59 5.49,-1.18 10.69,-1.76 15.59,-1.76 8.24,0 14.37,1.27 18.4,3.82 4.01,2.54 6.03,6.48 6.03,11.77 0,4.9 -1.72,8.98 -5.15,12.22 -3.44,3.23 -10.74,7.6 -21.92,13.08 -9.82,4.91 -15.9,8.05 -18.25,9.43 -2.35,1.37 -4.32,2.74 -5.88,4.12 m -93.58,-54.74 c 9.8,0 17.75,2.7 23.83,8.09 6.08,5.4 9.13,12.9 9.13,22.52 v 15.3 c -20.81,-0.4 -35.08,-2.46 -42.82,-6.18 -7.76,-3.73 -11.63,-10.21 -11.63,-19.42 0,-6.48 1.92,-11.48 5.74,-15.01 3.83,-3.53 9.07,-5.3 15.75,-5.3 m -25.9,86.22 -6.48,15.89 c 8.05,3.54 15.11,5.89 21.19,7.06 6.08,1.18 12.85,1.77 20.31,1.77 13.73,0 24.37,-3.83 31.93,-11.47 7.54,-7.66 11.32,-18.35 11.32,-32.08 v -81.23 h -15 l -3.83,13.26 c -4.91,-5.7 -10.2,-9.87 -15.89,-12.51 -5.69,-2.65 -11.97,-3.98 -18.83,-3.98 -12.76,0 -22.56,3.28 -29.43,9.86 -6.87,6.57 -10.3,15.76 -10.3,27.52 0,14.12 5.74,24.37 17.21,30.75 11.48,6.37 30.36,9.66 56.66,9.85 v 6.48 c 0,8.82 -2.17,15.44 -6.48,19.86 -4.32,4.41 -10.89,6.62 -19.72,6.62 -5.1,0 -10.2,-0.59 -15.3,-1.76 -5.1,-1.18 -10.89,-3.13 -17.36,-5.89 m -82.69,21.49 4.41,-15.01 c 3.73,5.89 8.43,10.39 14.13,13.53 5.69,3.14 11.96,4.71 18.83,4.71 3.73,0 7.4,-0.39 11.04,-1.17 3.62,-0.79 6.91,-1.96 9.85,-3.54 l -7.94,-17.07 c -2.55,1.18 -5.15,2.06 -7.8,2.65 -2.65,0.59 -5.35,0.89 -8.09,0.89 -9.03,0 -16.29,-3.2 -21.78,-9.56 -5.49,-6.39 -8.24,-15.06 -8.24,-26.05 v -70.93 h -19.42 v 121.55 z m -208.05,-37.38 c -4.71,3.92 -8.15,8.14 -10.3,12.65 -2.17,4.51 -3.24,9.62 -3.24,15.3 0,12.17 3.87,21.98 11.62,29.45 7.75,7.44 17.71,11.17 29.87,11.17 7.46,0 14.32,-1.28 20.6,-3.83 6.27,-2.55 14.13,-7.55 23.54,-15.01 5.69,-4.51 10.79,-7.69 15.3,-9.56 4.51,-1.86 9.52,-2.79 15.01,-2.79 6.28,0 10.99,2.24 14.13,6.77 3.13,4.51 5.19,11.57 6.18,21.18 h 14.41 v -27.95 h 24.73 v -16.49 h -24.73 v -67.67 c 0,-7.66 1.33,-13.25 3.98,-16.78 2.65,-3.53 6.91,-5.29 12.8,-5.29 0.98,0 2.16,0.04 3.53,0.14 1.37,0.09 2.75,0.24 4.12,0.44 l 1.77,-17.36 c -1.58,-0.2 -3.29,-0.34 -5.15,-0.44 -1.87,-0.1 -3.58,-0.15 -5.15,-0.15 -11.77,0 -20.6,3.29 -26.49,9.87 -5.88,6.56 -8.82,16.41 -8.82,29.57 v 67.67 h -11.19 c -8.82,0 -16.23,1.08 -22.21,3.25 -5.99,2.15 -12.71,6.17 -20.16,12.06 -7.46,5.69 -13.69,9.61 -18.69,11.77 -5,2.15 -10.15,3.24 -15.45,3.24 -7.46,0 -13.34,-1.97 -17.66,-5.89 -4.31,-3.93 -6.47,-9.22 -6.47,-15.89 0,-3.54 0.74,-6.77 2.21,-9.71 1.47,-2.95 3.77,-5.69 6.92,-8.24 1.17,-0.99 3.23,-2.35 6.17,-4.12 2.95,-1.77 6.87,-3.93 11.77,-6.48 9.42,-4.9 16.14,-8.63 20.16,-11.18 4.02,-2.55 7.51,-4.9 10.45,-7.06 5.1,-4.32 8.87,-8.88 11.33,-13.68 2.45,-4.81 3.67,-10.45 3.67,-16.92 0.2,-12.56 -4.21,-22.27 -13.24,-29.13 -9.02,-6.88 -21.68,-10.31 -37.96,-10.31 -6.67,0 -13.44,0.7 -20.3,2.06 -6.87,1.37 -14.23,3.43 -22.07,6.18 l 6.18,16.77 c 7.65,-2.74 14.31,-4.66 20.01,-5.73 5.69,-1.08 11.57,-1.62 17.65,-1.62 10.2,0 17.86,1.81 22.96,5.46 5.1,3.61 7.55,8.96 7.36,16.02 0,3.72 -0.94,7.11 -2.8,10.15 -1.87,3.05 -4.76,6.03 -8.68,8.97 -0.98,0.8 -3.14,2.16 -6.48,4.13 -3.33,1.96 -7.84,4.51 -13.53,7.65 -10.99,6.28 -17.85,10.3 -20.6,12.06 -2.75,1.77 -5.11,3.54 -7.06,5.3 m -115.95,-15.01 v 7.36 c 0,10.4 -2.45,18.29 -7.36,23.69 -4.9,5.39 -11.96,8.1 -21.19,8.1 -9.22,0 -16.28,-2.71 -21.18,-8.1 -4.91,-5.4 -7.36,-13.29 -7.36,-23.69 v -7.36 z m -76.51,-25.31 v 32.67 c 0,15.11 4.16,26.92 12.5,35.46 8.34,8.53 20.17,12.8 35.46,12.8 15.31,0 27.12,-4.27 35.47,-12.8 8.33,-8.54 12.5,-20.35 12.5,-35.46 0,-5.29 -0.05,-9.82 -0.14,-13.54 -0.11,-3.73 -0.35,-7.25 -0.74,-10.58 h -75.63 v -8.55 c 0,-10.4 2.5,-18 7.5,-22.8 5.01,-4.81 13,-7.21 23.99,-7.21 3.92,0 8.48,0.69 13.68,2.06 5.2,1.37 11.23,3.43 18.1,6.18 l 7.36,-16.19 c -7.46,-3.34 -14.23,-5.69 -20.31,-7.06 -6.08,-1.36 -12.36,-2.06 -18.83,-2.06 -16.88,0 -29.58,3.93 -38.11,11.77 -8.53,7.85 -12.8,19.62 -12.8,35.31 m -55.91,4.12 v 126.84 h 19.42 v -174.81 h -15.01 l -3.82,12.95 c -3.93,-5.29 -8.73,-9.3 -14.42,-12.06 -5.7,-2.74 -12.07,-4.12 -19.13,-4.12 -13.93,0 -24.68,4.22 -32.22,12.66 -7.56,8.43 -11.33,19.91 -11.33,34.42 v 33.85 c 0,14.71 3.97,26.23 11.92,34.57 7.94,8.34 19.07,12.51 33.4,12.51 3.53,0 7.01,-0.34 10.44,-1.03 3.43,-0.69 7.01,-1.71 10.74,-3.09 l -2.94,-14.71 c -3.53,0.78 -6.47,1.32 -8.83,1.61 -2.35,0.3 -4.61,0.45 -6.77,0.45 -9.41,0 -16.53,-2.56 -21.33,-7.65 -4.81,-5.11 -7.21,-12.66 -7.21,-22.66 v -33.85 c 0,-9.8 2.3,-17.26 6.92,-22.36 4.6,-5.1 11.32,-7.65 20.15,-7.65 9.42,0 16.77,3.04 22.07,9.12 5.3,6.08 7.95,14.43 7.95,25.01 m -226,90.64 -8.25,12.96 35.91,25.3 10,-15.6 z m 40.02,-69.45 v 7.36 c 0,10.4 -2.46,18.29 -7.36,23.69 -4.91,5.39 -11.97,8.1 -21.19,8.1 -9.22,0 -16.28,-2.71 -21.19,-8.1 -4.9,-5.4 -7.35,-13.29 -7.35,-23.69 v -7.36 z m -76.51,-25.31 v 32.67 c 0,15.11 4.16,26.92 12.5,35.46 8.34,8.53 20.16,12.8 35.46,12.8 15.3,0 27.12,-4.27 35.46,-12.8 8.34,-8.54 12.51,-20.35 12.51,-35.46 0,-5.29 -0.05,-9.82 -0.15,-13.54 -0.1,-3.73 -0.34,-7.25 -0.73,-10.58 h -75.63 v -8.55 c 0,-10.4 2.5,-18 7.5,-22.8 5,-4.81 12.99,-7.21 23.98,-7.21 3.93,0 8.49,0.69 13.69,2.06 5.19,1.37 11.23,3.43 18.1,6.18 l 7.35,-16.19 c -7.46,-3.34 -14.22,-5.69 -20.3,-7.06 -6.09,-1.36 -12.36,-2.06 -18.84,-2.06 -16.87,0 -29.57,3.93 -38.11,11.77 -8.53,7.85 -12.79,19.62 -12.79,35.31 m -63.57,105.65 h 14.42 v -27.95 h 24.72 v -16.49 h -24.72 v -67.67 c 0,-7.66 1.32,-13.25 3.97,-16.78 2.65,-3.53 6.91,-5.29 12.8,-5.29 0.98,0 2.16,0.04 3.53,0.14 1.38,0.09 2.75,0.24 4.12,0.44 l 1.77,-17.36 c -1.57,-0.2 -3.29,-0.34 -5.15,-0.44 -1.87,-0.1 -3.58,-0.15 -5.15,-0.15 -11.77,0 -20.6,3.29 -26.48,9.87 -5.89,6.56 -8.83,16.41 -8.83,29.57 v 67.67 h -24.72 v 16.49 c 11.37,0 18.88,1.91 22.51,5.73 3.63,3.83 6.03,11.23 7.21,22.22 m -75.63,-27.95 h 19.42 v -121.54 h -19.42 z m 9.71,17.06 -17.36,17.36 17.36,17.36 17.37,-17.36 z m -112.11,-70.03 c -4.12,3.13 -7.07,6.56 -8.83,10.29 -1.77,3.73 -2.65,8.15 -2.65,13.24 0,9.61 3.87,17.47 11.63,23.55 7.74,6.07 17.4,9.12 28.98,9.12 7.06,0 14.02,-0.78 20.89,-2.35 6.87,-1.58 13.25,-3.83 19.13,-6.77 l -7.65,-16.18 c -6.08,2.94 -11.68,5.05 -16.77,6.33 -5.11,1.27 -10.2,1.9 -15.31,1.9 -6.67,0 -11.92,-1.37 -15.74,-4.11 -3.83,-2.76 -5.74,-6.48 -5.74,-11.19 0,-3.14 0.74,-5.84 2.21,-8.09 1.47,-2.25 4.07,-4.46 7.8,-6.62 1.96,-1.18 5.05,-2.79 9.27,-4.85 4.22,-2.06 6.81,-3.29 7.79,-3.69 13.73,-6.67 23.1,-12.9 28.11,-18.69 5,-5.78 7.5,-12.79 7.5,-21.03 0,-10.01 -3.97,-17.95 -11.91,-23.84 -7.95,-5.89 -18.5,-8.83 -31.64,-8.83 -6.28,0 -12.65,0.64 -19.13,1.92 -6.47,1.28 -13.44,3.38 -20.89,6.32 l 6.18,16.48 c 6.47,-2.55 12.45,-4.41 17.95,-5.59 5.49,-1.18 10.69,-1.76 15.6,-1.76 8.23,0 14.37,1.27 18.39,3.82 4.02,2.54 6.03,6.48 6.03,11.77 0,4.9 -1.72,8.98 -5.15,12.22 -3.43,3.23 -10.74,7.6 -21.92,13.08 -9.81,4.91 -15.89,8.05 -18.25,9.43 -2.35,1.37 -4.31,2.74 -5.88,4.12 m -82.4,52.97 4.42,-15.01 c 3.72,5.89 8.43,10.39 14.12,13.53 5.69,3.14 11.97,4.71 18.84,4.71 3.72,0 7.4,-0.39 11.03,-1.17 3.63,-0.79 6.91,-1.96 9.86,-3.54 l -7.95,-17.07 c -2.55,1.18 -5.15,2.06 -7.79,2.65 -2.65,0.59 -5.35,0.89 -8.1,0.89 -9.02,0 -16.28,-3.2 -21.77,-9.56 -5.5,-6.39 -8.24,-15.06 -8.24,-26.05 v -70.93 h -19.43 v 121.55 z m -69.15,-52.39 v 7.36 c 0,10.4 -2.46,18.29 -7.36,23.69 -4.91,5.39 -11.97,8.1 -21.19,8.1 -9.22,0 -16.28,-2.71 -21.18,-8.1 -4.91,-5.4 -7.36,-13.29 -7.36,-23.69 v -7.36 z m -76.52,-25.31 v 32.67 c 0,15.11 4.17,26.92 12.51,35.46 8.34,8.53 20.16,12.8 35.46,12.8 15.3,0 27.12,-4.27 35.46,-12.8 8.34,-8.54 12.51,-20.35 12.51,-35.46 0,-5.29 -0.05,-9.82 -0.15,-13.54 -0.1,-3.73 -0.34,-7.25 -0.73,-10.58 h -75.63 v -8.55 c 0,-10.4 2.5,-18 7.5,-22.8 5,-4.81 13,-7.21 23.99,-7.21 3.92,0 8.48,0.69 13.68,2.06 5.19,1.37 11.23,3.43 18.1,6.18 l 7.35,-16.19 c -7.45,-3.34 -14.22,-5.69 -20.3,-7.06 -6.08,-1.36 -12.36,-2.06 -18.83,-2.06 -16.88,0 -29.58,3.93 -38.11,11.77 -8.54,7.85 -12.81,19.62 -12.81,35.31 m -74.15,-21.46 34.43,99.16 h 20.01 l -42.97,-121.55 h -23.24 l -42.97,121.55 h 20.01 z m -99.76,99.16 h 19.42 v -121.54 h -19.42 z m 9.71,17.06 -17.36,17.36 17.36,17.36 17.36,-17.36 z m -129.19,-17.06 3.83,-12.95 c 3.92,5.29 8.73,9.31 14.42,12.06 5.69,2.74 12.07,4.12 19.13,4.12 13.92,0 24.67,-4.22 32.22,-12.66 7.55,-8.43 11.33,-19.91 11.33,-34.42 v -77.7 h -19.42 v 77.7 c 0,9.8 -2.31,17.26 -6.92,22.36 -4.61,5.1 -11.33,7.65 -20.16,7.65 -9.41,0 -16.77,-3.04 -22.07,-9.12 -5.29,-6.09 -7.94,-14.42 -7.94,-25.01 v -73.58 h -19.43 v 121.55 z m -72.68,-66.21 v 94.16 h 19.42 v -94.16 c 0,-19.23 -4.61,-33.8 -13.83,-43.7 -9.22,-9.92 -22.76,-14.87 -40.611,-14.87 -18.051,0 -31.641,4.95 -40.762,14.87 -9.117,9.9 -13.68,24.47 -13.68,43.7 v 94.16 h 19.422 v -94.16 c 0,-13.94 2.84,-24.28 8.539,-31.05 5.68,-6.78 14.512,-10.15 26.481,-10.15 11.771,0 20.551,3.37 26.341,10.15 5.78,6.77 8.68,17.11 8.68,31.05"
         style="fill:#231f20;fill-opacity:1;fill-rule:nonzero;stroke:none"
         transform="matrix(0.13333333,0,0,-0.13333333,0,793.70667)" /><path
         id="path10"
         d="M 774.141,2765.7 H 7476.28 v 410.52 H 774.141 Z"
         style="fill:none;stroke:#231f20;stroke-width:8.64;stroke-linecap:butt;stroke-linejoin:miter;stroke-miterlimit:4;stroke-dasharray:none;stroke-opacity:1"
         transform="matrix(0.13333333,0,0,-0.13333333,0,793.70667)" /><path
         id="path12"
         d="M 774.141,3176.62 H 2267.91 v 410.52 H 774.141 Z"
         style="fill:none;stroke:#231f20;stroke-width:8.64;stroke-linecap:butt;stroke-linejoin:miter;stroke-miterlimit:4;stroke-dasharray:none;stroke-opacity:1"
         transform="matrix(0.13333333,0,0,-0.13333333,0,793.70667)" /><path
         id="path14"
         d="m 2268.51,3176.62 h 3212.18 v 410.52 H 2268.51 Z"
         style="fill:none;stroke:#231f20;stroke-width:8.64;stroke-linecap:butt;stroke-linejoin:miter;stroke-miterlimit:4;stroke-dasharray:none;stroke-opacity:1"
         transform="matrix(0.13333333,0,0,-0.13333333,0,793.70667)" /><path
         id="path15"
         d="m 941.063,3293.57 v 149.49 h 19.421 v -132.13 h 64.746 v -17.36 h -84.167"
         style="fill:#231f20;fill-opacity:1;fill-rule:nonzero;stroke:none"
         transform="matrix(0.13333333,0,0,-0.13333333,0,793.70667)" /><path
         id="path16"
         d="m 1083.49,3307.4 c 9.81,0 17.75,2.7 23.84,8.1 6.08,5.39 9.12,12.9 9.12,22.51 v 15.3 c -20.8,-0.39 -35.07,-2.45 -42.82,-6.18 -7.75,-3.73 -11.62,-10.2 -11.62,-19.42 0,-6.47 1.91,-11.48 5.74,-15.01 3.82,-3.53 9.07,-5.3 15.74,-5.3 m -25.89,86.22 -6.48,15.9 c 8.04,3.52 15.1,5.88 21.19,7.06 6.08,1.17 12.85,1.77 20.31,1.77 13.72,0 24.37,-3.83 31.92,-11.49 7.55,-7.64 11.33,-18.34 11.33,-32.07 v -81.22 h -15.01 l -3.82,13.24 c -4.91,-5.69 -10.21,-9.85 -15.89,-12.51 -5.7,-2.64 -11.97,-3.96 -18.84,-3.96 -12.75,0 -22.56,3.28 -29.43,9.85 -6.86,6.58 -10.29,15.75 -10.29,27.52 0,14.12 5.73,24.37 17.21,30.74 11.48,6.38 30.36,9.67 56.65,9.87 v 6.47 c 0,8.83 -2.16,15.45 -6.48,19.87 -4.31,4.41 -10.88,6.62 -19.71,6.62 -5.1,0 -10.2,-0.59 -15.31,-1.77 -5.1,-1.17 -10.88,-3.14 -17.35,-5.89"
         style="fill:#231f20;fill-opacity:1;fill-rule:nonzero;stroke:none"
         transform="matrix(0.13333333,0,0,-0.13333333,0,793.70667)" /><path
         id="path17"
         d="m 1173.83,3293.57 v 174.79 h 19.42 v -126.82 c 0,-10.6 2.6,-18.94 7.8,-25.02 5.2,-6.08 12.31,-9.12 21.33,-9.12 9.22,0 16.19,2.55 20.9,7.65 4.71,5.1 7.06,12.55 7.06,22.37 v 33.84 c 0,10.01 -2.2,17.55 -6.62,22.66 -4.41,5.1 -10.94,7.65 -19.57,7.65 -2.55,0 -5.25,-0.29 -8.09,-0.88 -2.85,-0.6 -5.44,-1.48 -7.8,-2.66 l -6.77,12.95 c 3.93,2.36 8.04,4.17 12.36,5.45 4.32,1.27 8.63,1.92 12.95,1.92 13.73,0 24.32,-4.13 31.78,-12.37 7.46,-8.24 11.18,-19.81 11.18,-34.72 v -33.84 c 0,-14.13 -3.97,-25.51 -11.92,-34.14 -7.94,-8.64 -18.78,-12.94 -32.51,-12.94 -6.87,0 -13.1,1.36 -18.69,4.11 -5.59,2.74 -10.25,6.67 -13.98,11.78 l -3.82,-12.66 h -15.01"
         style="fill:#231f20;fill-opacity:1;fill-rule:nonzero;stroke:none"
         transform="matrix(0.13333333,0,0,-0.13333333,0,793.70667)" /><path
         id="path18"
         d="m 1380.41,3338.59 v 31.49 c 0,10.39 -2.46,18.25 -7.36,23.54 -4.91,5.3 -12.17,7.95 -21.78,7.95 -9.61,0 -16.87,-2.65 -21.77,-7.95 -4.91,-5.29 -7.36,-13.15 -7.36,-23.54 v -31.49 c 0,-10.4 2.45,-18.24 7.36,-23.54 4.9,-5.3 12.16,-7.94 21.77,-7.94 9.61,0 16.87,2.64 21.78,7.94 4.9,5.3 7.36,13.14 7.36,23.54 m -77.69,0 v 31.49 c 0,15.1 4.21,26.93 12.65,35.46 8.43,8.54 20.41,12.81 35.9,12.81 15.5,0 27.47,-4.27 35.91,-12.81 8.43,-8.53 12.65,-20.36 12.65,-35.46 v -31.49 c 0,-15.11 -4.22,-26.92 -12.65,-35.46 -8.44,-8.53 -20.41,-12.79 -35.91,-12.79 -15.49,0 -27.47,4.26 -35.9,12.79 -8.44,8.54 -12.65,20.35 -12.65,35.46"
         style="fill:#231f20;fill-opacity:1;fill-rule:nonzero;stroke:none"
         transform="matrix(0.13333333,0,0,-0.13333333,0,793.70667)" /><path
         id="path19"
         d="m 1451.33,3415.1 4.41,-15.01 c 3.73,5.89 8.44,10.4 14.13,13.55 5.69,3.13 11.96,4.7 18.83,4.7 3.73,0 7.41,-0.4 11.04,-1.18 3.63,-0.78 6.91,-1.96 9.86,-3.52 l -7.95,-17.08 c -2.55,1.18 -5.15,2.07 -7.8,2.65 -2.65,0.59 -5.35,0.88 -8.09,0.88 -9.02,0 -16.29,-3.18 -21.78,-9.56 -5.49,-6.38 -8.24,-15.06 -8.24,-26.05 v -70.91 h -19.42 v 121.53 h 15.01"
         style="fill:#231f20;fill-opacity:1;fill-rule:nonzero;stroke:none"
         transform="matrix(0.13333333,0,0,-0.13333333,0,793.70667)" /><path
         id="path20"
         d="m 1560.21,3307.4 c 9.8,0 17.74,2.7 23.83,8.1 6.09,5.39 9.12,12.9 9.12,22.51 v 15.3 c -20.8,-0.39 -35.06,-2.45 -42.81,-6.18 -7.76,-3.73 -11.62,-10.2 -11.62,-19.42 0,-6.47 1.9,-11.48 5.73,-15.01 3.83,-3.53 9.08,-5.3 15.75,-5.3 m -25.89,86.22 -6.48,15.9 c 8.03,3.52 15.09,5.88 21.18,7.06 6.08,1.17 12.86,1.77 20.32,1.77 13.72,0 24.37,-3.83 31.91,-11.49 7.55,-7.64 11.33,-18.34 11.33,-32.07 v -81.22 h -15.01 l -3.82,13.24 c -4.91,-5.69 -10.21,-9.85 -15.88,-12.51 -5.71,-2.64 -11.98,-3.96 -18.85,-3.96 -12.75,0 -22.56,3.28 -29.43,9.85 -6.86,6.58 -10.28,15.75 -10.28,27.52 0,14.12 5.72,24.37 17.2,30.74 11.48,6.38 30.37,9.67 56.65,9.87 v 6.47 c 0,8.83 -2.15,15.45 -6.48,19.87 -4.31,4.41 -10.87,6.62 -19.71,6.62 -5.09,0 -10.19,-0.59 -15.3,-1.77 -5.11,-1.17 -10.88,-3.14 -17.35,-5.89"
         style="fill:#231f20;fill-opacity:1;fill-rule:nonzero;stroke:none"
         transform="matrix(0.13333333,0,0,-0.13333333,0,793.70667)" /><path
         id="path21"
         d="m 1666.14,3443.06 h 14.42 v -27.96 h 24.72 v -16.47 h -24.72 v -67.69 c 0,-7.66 1.33,-13.24 3.97,-16.78 2.65,-3.52 6.92,-5.29 12.81,-5.29 0.97,0 2.15,0.05 3.53,0.15 1.37,0.09 2.74,0.24 4.12,0.44 l 1.76,-17.37 c -1.57,-0.18 -3.29,-0.34 -5.15,-0.44 -1.87,-0.09 -3.58,-0.14 -5.15,-0.14 -11.77,0 -20.6,3.28 -26.48,9.86 -5.89,6.56 -8.83,16.43 -8.83,29.57 v 67.69 h -24.72 v 16.47 c 11.38,0 18.88,1.92 22.51,5.74 3.63,3.83 6.03,11.23 7.21,22.22"
         style="fill:#231f20;fill-opacity:1;fill-rule:nonzero;stroke:none"
         transform="matrix(0.13333333,0,0,-0.13333333,0,793.70667)" /><path
         id="path22"
         d="m 1807.39,3338.59 v 31.49 c 0,10.39 -2.46,18.25 -7.36,23.54 -4.91,5.3 -12.17,7.95 -21.78,7.95 -9.61,0 -16.87,-2.65 -21.77,-7.95 -4.91,-5.29 -7.36,-13.15 -7.36,-23.54 v -31.49 c 0,-10.4 2.45,-18.24 7.36,-23.54 4.9,-5.3 12.16,-7.94 21.77,-7.94 9.61,0 16.87,2.64 21.78,7.94 4.9,5.3 7.36,13.14 7.36,23.54 m -77.69,0 v 31.49 c 0,15.1 4.21,26.93 12.65,35.46 8.43,8.54 20.41,12.81 35.9,12.81 15.5,0 27.47,-4.27 35.92,-12.81 8.43,-8.53 12.64,-20.36 12.64,-35.46 v -31.49 c 0,-15.11 -4.21,-26.92 -12.64,-35.46 -8.45,-8.53 -20.42,-12.79 -35.92,-12.79 -15.49,0 -27.47,4.26 -35.9,12.79 -8.44,8.54 -12.65,20.35 -12.65,35.46"
         style="fill:#231f20;fill-opacity:1;fill-rule:nonzero;stroke:none"
         transform="matrix(0.13333333,0,0,-0.13333333,0,793.70667)" /><path
         id="path23"
         d="m 1863.89,3415.1 h 19.42 v -121.53 h -19.42 z m 9.71,17.07 -17.36,17.37 17.36,17.36 17.37,-17.36 -17.37,-17.37"
         style="fill:#231f20;fill-opacity:1;fill-rule:nonzero;stroke:none"
         transform="matrix(0.13333333,0,0,-0.13333333,0,793.70667)" /><path
         id="path24"
         d="m 1938.93,3415.1 4.4,-15.01 c 3.73,5.89 8.44,10.4 14.14,13.55 5.68,3.13 11.95,4.7 18.82,4.7 3.72,0 7.42,-0.4 11.04,-1.18 3.63,-0.78 6.92,-1.96 9.86,-3.52 l -7.94,-17.08 c -2.57,1.18 -5.15,2.07 -7.8,2.65 -2.66,0.59 -5.35,0.88 -8.1,0.88 -9.02,0 -16.28,-3.18 -21.76,-9.56 -5.51,-6.38 -8.26,-15.06 -8.26,-26.05 v -70.91 h -19.41 v 121.53 h 15.01"
         style="fill:#231f20;fill-opacity:1;fill-rule:nonzero;stroke:none"
         transform="matrix(0.13333333,0,0,-0.13333333,0,793.70667)" /><path
         id="path25"
         d="m 2087.24,3362.72 v 7.36 c 0,10.39 -2.45,18.29 -7.35,23.69 -4.91,5.4 -11.98,8.09 -21.19,8.09 -9.22,0 -16.28,-2.69 -21.2,-8.09 -4.9,-5.4 -7.35,-13.3 -7.35,-23.69 v -7.36 z m -76.51,-25.3 v 32.66 c 0,15.1 4.17,26.93 12.51,35.46 8.34,8.54 20.14,12.8 35.46,12.8 15.29,0 27.11,-4.26 35.45,-12.8 8.34,-8.53 12.51,-20.36 12.51,-35.46 0,-5.3 -0.05,-9.81 -0.15,-13.53 -0.09,-3.73 -0.33,-7.27 -0.73,-10.6 h -75.63 v -8.53 c 0,-10.4 2.5,-18 7.51,-22.81 5,-4.81 12.98,-7.21 23.98,-7.21 3.92,0 8.48,0.68 13.69,2.06 5.19,1.38 11.23,3.43 18.09,6.18 l 7.36,-16.18 c -7.46,-3.34 -14.22,-5.7 -20.32,-7.07 -6.08,-1.37 -12.34,-2.05 -18.82,-2.05 -16.87,0 -29.58,3.91 -38.11,11.76 -8.54,7.85 -12.8,19.61 -12.8,35.32"
         style="fill:#231f20;fill-opacity:1;fill-rule:nonzero;stroke:none"
         transform="matrix(0.13333333,0,0,-0.13333333,0,793.70667)" /><path
         id="path26"
         d="m 2447.17,3345.06 h 41.79 l -20.9,60.34 z m -53.56,-51.49 55.62,150.66 h 37.67 l 55.61,-150.66 h -35.6 l -7.95,23.26 h -61.8 l -7.94,-23.26 h -35.61"
         style="fill:#231f20;fill-opacity:1;fill-rule:nonzero;stroke:none"
         transform="matrix(0.13333333,0,0,-0.13333333,0,793.70667)" /><path
         id="path27"
         d="m 2584,3415.69 3.82,-13.24 c 4.31,5.5 9.51,9.62 15.59,12.36 6.09,2.75 12.86,4.12 20.33,4.12 14.69,0 25.92,-4.81 33.68,-14.42 7.75,-9.61 11.62,-23.24 11.62,-40.9 v -18.24 c 0,-15.9 -4.22,-29.05 -12.66,-39.44 -8.43,-10.4 -19.71,-15.59 -33.84,-15.59 -4.51,0 -8.62,0.39 -12.35,1.17 -3.73,0.79 -7.36,1.96 -10.9,3.54 l 5.31,26.19 c 1.56,-0.4 3.23,-0.7 5,-0.89 1.76,-0.2 3.33,-0.29 4.7,-0.29 6.87,0 11.82,2.01 14.87,6.03 3.03,4.01 4.57,10.45 4.57,19.28 v 18.24 c 0,8.63 -1.48,14.9 -4.43,18.83 -2.94,3.92 -7.75,5.89 -14.41,5.89 -6.88,0 -12.21,-2.11 -16.05,-6.33 -3.81,-4.22 -5.72,-10.15 -5.72,-17.8 v -123.6 h -35.32 v 175.09 H 2584"
         style="fill:#231f20;fill-opacity:1;fill-rule:nonzero;stroke:none"
         transform="matrix(0.13333333,0,0,-0.13333333,0,793.70667)" /><path
         id="path28"
         d="m 2722.9,3415.69 3.82,-13.24 c 4.31,5.5 9.51,9.62 15.59,12.36 6.09,2.75 12.86,4.12 20.32,4.12 14.7,0 25.93,-4.81 33.69,-14.42 7.74,-9.61 11.62,-23.24 11.62,-40.9 v -18.24 c 0,-15.9 -4.22,-29.05 -12.66,-39.44 -8.43,-10.4 -19.71,-15.59 -33.84,-15.59 -4.51,0 -8.63,0.39 -12.36,1.17 -3.72,0.79 -7.35,1.96 -10.89,3.54 l 5.31,26.19 c 1.56,-0.4 3.23,-0.7 5,-0.89 1.76,-0.2 3.33,-0.29 4.7,-0.29 6.87,0 11.82,2.01 14.87,6.03 3.03,4.01 4.56,10.45 4.56,19.28 v 18.24 c 0,8.63 -1.48,14.9 -4.42,18.83 -2.94,3.92 -7.75,5.89 -14.41,5.89 -6.88,0 -12.22,-2.11 -16.05,-6.33 -3.81,-4.22 -5.73,-10.15 -5.73,-17.8 v -123.6 h -35.31 v 175.09 h 26.19"
         style="fill:#231f20;fill-opacity:1;fill-rule:nonzero;stroke:none"
         transform="matrix(0.13333333,0,0,-0.13333333,0,793.70667)" /><path
         id="path29"
         d="m 2861.79,3415.69 5.88,-19.71 c 3.92,7.25 8.92,12.75 15.01,16.48 6.07,3.72 13.05,5.59 20.88,5.59 2.17,0 4.42,-0.15 6.78,-0.45 2.36,-0.29 4.81,-0.73 7.36,-1.31 l -5.89,-34.14 c -2.55,0.39 -4.72,0.68 -6.48,0.88 -1.77,0.19 -3.52,0.3 -5.29,0.3 -9.02,0 -16.14,-2.95 -21.34,-8.83 -5.19,-5.89 -7.79,-14.33 -7.79,-25.31 v -55.62 h -35.31 v 122.12 h 26.19"
         style="fill:#231f20;fill-opacity:1;fill-rule:nonzero;stroke:none"
         transform="matrix(0.13333333,0,0,-0.13333333,0,793.70667)" /><path
         id="path30"
         d="m 3002.44,3344.18 v 20.89 c 0,8.84 -1.67,15.35 -5,19.57 -3.34,4.23 -8.44,6.34 -15.3,6.34 -6.87,0 -11.98,-2.11 -15.31,-6.34 -3.34,-4.22 -5,-10.73 -5,-19.57 v -20.89 c 0,-9.01 1.63,-15.6 4.86,-19.72 3.24,-4.11 8.39,-6.17 15.45,-6.17 7.06,0 12.21,2.06 15.45,6.17 3.24,4.12 4.85,10.71 4.85,19.72 m -75.62,0.88 v 19.13 c 0,17.46 4.8,30.96 14.41,40.46 9.62,9.52 23.25,14.29 40.91,14.29 17.65,0 31.29,-4.77 40.91,-14.29 9.6,-9.5 14.41,-23 14.41,-40.46 v -19.13 c 0,-17.46 -4.81,-30.94 -14.41,-40.46 -9.62,-9.52 -23.26,-14.26 -40.91,-14.26 -17.66,0 -31.29,4.74 -40.91,14.26 -9.61,9.52 -14.41,23 -14.41,40.46"
         style="fill:#231f20;fill-opacity:1;fill-rule:nonzero;stroke:none"
         transform="matrix(0.13333333,0,0,-0.13333333,0,793.70667)" /><path
         id="path31"
         d="m 3059.82,3345.06 v 19.13 c 0,16.67 4.85,29.97 14.57,39.87 9.71,9.91 23.11,14.88 40.18,14.88 7.06,0 13.92,-0.8 20.59,-2.37 6.67,-1.57 12.45,-3.73 17.36,-6.47 l -12.07,-25.31 c -3.73,1.76 -7.6,3.14 -11.63,4.13 -4.02,0.97 -7.78,1.47 -11.32,1.47 -7.47,0 -13.05,-2.17 -16.77,-6.47 -3.73,-4.33 -5.6,-10.9 -5.6,-19.73 v -19.13 c 0,-8.82 1.87,-15.4 5.6,-19.72 3.72,-4.31 9.51,-6.47 17.36,-6.47 3.15,0 6.76,0.55 10.88,1.62 4.13,1.07 8.74,2.69 13.84,4.85 l 11.77,-25.58 c -6.47,-3.34 -12.7,-5.75 -18.7,-7.22 -5.98,-1.47 -12.2,-2.21 -18.68,-2.21 -18.44,0 -32.61,4.71 -42.52,14.12 -9.9,9.42 -14.86,22.95 -14.86,40.61"
         style="fill:#231f20;fill-opacity:1;fill-rule:nonzero;stroke:none"
         transform="matrix(0.13333333,0,0,-0.13333333,0,793.70667)" /><path
         id="path32"
         d="m 3174.88,3293.57 v 174.79 h 35.32 v -60.32 c 4.11,3.54 8.71,6.23 13.82,8.1 5.1,1.85 10.69,2.79 16.78,2.79 14.71,0 25.84,-4.75 33.4,-14.28 7.55,-9.51 11.32,-23.19 11.32,-41.04 v -70.04 h -35.31 v 70.04 c 0,8.63 -1.42,14.9 -4.27,18.83 -2.85,3.92 -7.51,5.89 -13.97,5.89 -6.88,0 -12.22,-2.11 -16.05,-6.33 -3.81,-4.22 -5.72,-10.15 -5.72,-17.81 v -70.62 h -35.32"
         style="fill:#231f20;fill-opacity:1;fill-rule:nonzero;stroke:none"
         transform="matrix(0.13333333,0,0,-0.13333333,0,793.70667)" /><path
         id="path33"
         d="m 3387.05,3366.84 v 1.18 c 0,8.63 -1.72,15.01 -5.15,19.13 -3.43,4.11 -8.58,6.17 -15.45,6.17 -6.67,0 -11.72,-2.1 -15.15,-6.32 -3.44,-4.22 -5.15,-10.55 -5.15,-18.98 v -1.18 z m -75.92,-21.78 v 19.13 c 0,17.46 4.81,30.95 14.42,40.46 9.62,9.52 23.25,14.28 40.9,14.28 17.47,0 31.05,-4.9 40.77,-14.72 9.7,-9.81 14.56,-23.64 14.56,-41.49 0,-3.53 -0.05,-6.72 -0.15,-9.56 -0.1,-2.84 -0.34,-6.53 -0.73,-11.04 h -74.75 c 0,-8.43 2.06,-14.66 6.18,-18.68 4.12,-4.02 10.49,-6.03 19.12,-6.03 4.52,0 9.82,0.68 15.9,2.06 6.08,1.36 11.28,3.03 15.6,5 l 11.47,-24.72 c -6.87,-3.34 -13.88,-5.74 -21.04,-7.21 -7.16,-1.47 -15.35,-2.2 -24.57,-2.2 -18.64,0 -32.91,4.7 -42.81,14.12 -9.92,9.41 -14.87,22.95 -14.87,40.6"
         style="fill:#231f20;fill-opacity:1;fill-rule:nonzero;stroke:none"
         transform="matrix(0.13333333,0,0,-0.13333333,0,793.70667)" /><path
         id="path34"
         d="m 3451.8,3356.24 c -4.12,3.34 -7.22,7.11 -9.29,11.34 -2.05,4.22 -3.07,8.87 -3.07,13.97 0,11.38 4.36,20.46 13.09,27.22 8.72,6.78 19.76,10.17 33.1,10.17 7.85,0 15.65,-0.88 23.41,-2.66 7.74,-1.76 14.75,-4.32 21.03,-7.66 l -12.65,-26.48 c -5.49,2.74 -10.8,4.8 -15.89,6.18 -5.1,1.38 -9.82,2.07 -14.12,2.07 -4.32,0 -7.56,-0.69 -9.72,-2.07 -2.16,-1.38 -3.23,-3.33 -3.23,-5.88 0,-1.97 0.77,-3.57 2.35,-4.86 1.57,-1.28 7.06,-4.26 16.47,-8.98 15.69,-7.63 25.81,-14.25 30.32,-19.86 4.51,-5.59 6.76,-12.99 6.76,-22.22 0,-11.17 -4.36,-20.01 -13.09,-26.48 -8.73,-6.48 -20.06,-9.7 -33.99,-9.7 -8.05,0 -15.55,0.58 -22.51,1.75 -6.97,1.19 -14.66,3.34 -23.1,6.47 l 10.3,27.68 c 6.48,-2.55 12.51,-4.41 18.09,-5.61 5.6,-1.17 10.95,-1.75 16.03,-1.75 4.33,0 7.77,0.78 10.32,2.36 2.54,1.55 3.82,3.61 3.82,6.17 0,2.16 -0.74,3.98 -2.2,5.45 -1.48,1.48 -7.02,4.45 -16.63,8.98 -8.44,3.92 -14.23,6.8 -17.37,8.67 -3.14,1.86 -5.88,3.78 -8.23,5.73"
         style="fill:#231f20;fill-opacity:1;fill-rule:nonzero;stroke:none"
         transform="matrix(0.13333333,0,0,-0.13333333,0,793.70667)" /><path
         id="path35"
         d="m 3595.98,3345.06 v 19.13 c 0,16.67 4.85,29.97 14.57,39.87 9.71,9.91 23.1,14.88 40.17,14.88 7.06,0 13.92,-0.8 20.59,-2.37 6.67,-1.57 12.45,-3.73 17.37,-6.47 l -12.07,-25.31 c -3.73,1.76 -7.6,3.14 -11.63,4.13 -4.02,0.97 -7.79,1.47 -11.32,1.47 -7.47,0 -13.05,-2.17 -16.78,-6.47 -3.73,-4.33 -5.59,-10.9 -5.59,-19.73 v -19.13 c 0,-8.82 1.86,-15.4 5.59,-19.72 3.73,-4.31 9.52,-6.47 17.36,-6.47 3.15,0 6.77,0.55 10.89,1.62 4.12,1.07 8.73,2.69 13.83,4.85 l 11.78,-25.58 c -6.48,-3.34 -12.71,-5.75 -18.7,-7.22 -5.99,-1.47 -12.2,-2.21 -18.69,-2.21 -18.43,0 -32.6,4.71 -42.52,14.12 -9.9,9.42 -14.85,22.95 -14.85,40.61"
         style="fill:#231f20;fill-opacity:1;fill-rule:nonzero;stroke:none"
         transform="matrix(0.13333333,0,0,-0.13333333,0,793.70667)" /><path
         id="path36"
         d="m 3777.25,3344.18 v 20.89 c 0,8.84 -1.67,15.35 -5,19.57 -3.34,4.23 -8.45,6.34 -15.31,6.34 -6.86,0 -11.97,-2.11 -15.3,-6.34 -3.34,-4.22 -5,-10.73 -5,-19.57 v -20.89 c 0,-9.01 1.63,-15.6 4.85,-19.72 3.25,-4.11 8.4,-6.17 15.45,-6.17 7.06,0 12.22,2.06 15.46,6.17 3.23,4.12 4.85,10.71 4.85,19.72 m -75.62,0.88 v 19.13 c 0,17.46 4.8,30.96 14.41,40.46 9.61,9.52 23.25,14.29 40.9,14.29 17.65,0 31.3,-4.77 40.92,-14.29 9.6,-9.5 14.41,-23 14.41,-40.46 v -19.13 c 0,-17.46 -4.81,-30.94 -14.41,-40.46 -9.62,-9.52 -23.27,-14.26 -40.92,-14.26 -17.65,0 -31.29,4.74 -40.9,14.26 -9.61,9.52 -14.41,23 -14.41,40.46"
         style="fill:#231f20;fill-opacity:1;fill-rule:nonzero;stroke:none"
         transform="matrix(0.13333333,0,0,-0.13333333,0,793.70667)" /><path
         id="path37"
         d="m 3866.12,3415.69 3.82,-13.24 c 4.31,5.5 9.51,9.62 15.59,12.36 6.09,2.75 12.86,4.12 20.32,4.12 14.7,0 25.84,-4.75 33.39,-14.28 7.55,-9.51 11.33,-23.19 11.33,-41.04 v -70.04 h -35.31 v 70.04 c 0,8.63 -1.43,14.9 -4.27,18.83 -2.85,3.92 -7.51,5.89 -13.97,5.89 -6.88,0 -12.22,-2.11 -16.05,-6.33 -3.81,-4.22 -5.73,-10.15 -5.73,-17.8 v -70.63 h -35.31 v 122.12 h 26.19"
         style="fill:#231f20;fill-opacity:1;fill-rule:nonzero;stroke:none"
         transform="matrix(0.13333333,0,0,-0.13333333,0,793.70667)" /><path
         id="path38"
         d="m 3996.77,3444.23 h 26.79 v -28.54 h 21.76 v -28.54 h -21.76 v -47.97 c 0,-5.68 1.12,-9.85 3.38,-12.51 2.25,-2.65 6.03,-3.97 11.32,-3.97 h 3.69 c 0.87,0 1.8,0.09 2.79,0.29 l 2.94,-30.9 c -2.16,-0.39 -4.26,-0.63 -6.32,-0.73 -2.06,-0.1 -4.08,-0.14 -6.04,-0.14 -15.1,0 -26.73,4.17 -34.87,12.51 -8.14,8.33 -12.22,19.86 -12.22,34.57 v 48.85 h -21.76 v 28.54 h 5.88 c 8.43,0 14.37,2.21 17.8,6.62 3.44,4.41 5.64,11.72 6.62,21.92"
         style="fill:#231f20;fill-opacity:1;fill-rule:nonzero;stroke:none"
         transform="matrix(0.13333333,0,0,-0.13333333,0,793.70667)" /><path
         id="path39"
         d="m 4138.61,3366.84 v 1.18 c 0,8.63 -1.72,15.01 -5.15,19.13 -3.43,4.11 -8.58,6.17 -15.45,6.17 -6.67,0 -11.72,-2.1 -15.15,-6.32 -3.44,-4.22 -5.15,-10.55 -5.15,-18.98 v -1.18 z m -75.91,-21.78 v 19.13 c 0,17.46 4.8,30.95 14.41,40.46 9.62,9.52 23.25,14.28 40.9,14.28 17.47,0 31.05,-4.9 40.77,-14.72 9.7,-9.81 14.56,-23.64 14.56,-41.49 0,-3.53 -0.05,-6.72 -0.15,-9.56 -0.1,-2.84 -0.34,-6.53 -0.73,-11.04 h -74.75 c 0,-8.43 2.07,-14.66 6.18,-18.68 4.12,-4.02 10.49,-6.03 19.12,-6.03 4.52,0 9.82,0.68 15.9,2.06 6.08,1.36 11.29,3.03 15.6,5 l 11.47,-24.72 c -6.87,-3.34 -13.88,-5.74 -21.04,-7.21 -7.16,-1.47 -15.35,-2.2 -24.57,-2.2 -18.64,0 -32.91,4.7 -42.81,14.12 -9.92,9.41 -14.86,22.95 -14.86,40.6"
         style="fill:#231f20;fill-opacity:1;fill-rule:nonzero;stroke:none"
         transform="matrix(0.13333333,0,0,-0.13333333,0,793.70667)" /><path
         id="path40"
         d="m 4264.27,3418.93 c 8.24,0 15.3,-1.57 21.19,-4.71 5.89,-3.14 10.59,-7.95 14.12,-14.42 4.32,6.28 9.67,11.03 16.05,14.28 6.36,3.23 13.48,4.85 21.32,4.85 14.13,0 24.77,-4.66 31.94,-13.97 7.15,-9.33 10.74,-23.11 10.74,-41.35 v -70.04 h -35.31 v 70.04 c 0,8.63 -1.38,14.9 -4.12,18.83 -2.76,3.92 -7.07,5.88 -12.95,5.88 -6.28,0 -11.23,-2.15 -14.87,-6.47 -3.63,-4.32 -5.44,-10.4 -5.44,-18.24 v -70.04 h -35.31 v 70.04 c 0,8.63 -1.38,14.9 -4.12,18.83 -2.75,3.92 -7.06,5.88 -12.95,5.88 -6.28,0 -11.23,-2.15 -14.86,-6.47 -3.64,-4.32 -5.44,-10.4 -5.44,-18.24 v -70.04 h -35.31 v 122.12 h 26.19 l 3.82,-13.54 c 4.31,5.5 9.42,9.67 15.3,12.51 5.89,2.84 12.56,4.27 20.01,4.27"
         style="fill:#231f20;fill-opacity:1;fill-rule:nonzero;stroke:none"
         transform="matrix(0.13333333,0,0,-0.13333333,0,793.70667)" /><path
         id="path41"
         d="m 4436.42,3415.69 3.81,-13.24 c 4.32,5.5 9.52,9.62 15.6,12.36 6.08,2.75 12.85,4.12 20.31,4.12 14.71,0 25.94,-4.81 33.69,-14.42 7.75,-9.61 11.63,-23.24 11.63,-40.9 v -18.24 c 0,-15.9 -4.22,-29.05 -12.66,-39.44 -8.44,-10.4 -19.72,-15.59 -33.85,-15.59 -4.5,0 -8.62,0.39 -12.35,1.17 -3.72,0.79 -7.36,1.96 -10.89,3.54 l 5.3,26.19 c 1.56,-0.4 3.23,-0.7 5,-0.89 1.77,-0.2 3.33,-0.29 4.71,-0.29 6.86,0 11.82,2.01 14.86,6.03 3.04,4.01 4.56,10.45 4.56,19.28 v 18.24 c 0,8.63 -1.47,14.9 -4.41,18.83 -2.94,3.92 -7.76,5.89 -14.42,5.89 -6.87,0 -12.21,-2.11 -16.04,-6.33 -3.82,-4.22 -5.73,-10.15 -5.73,-17.8 v -123.6 h -35.32 v 175.09 h 26.2"
         style="fill:#231f20;fill-opacity:1;fill-rule:nonzero;stroke:none"
         transform="matrix(0.13333333,0,0,-0.13333333,0,793.70667)" /><path
         id="path42"
         d="m 4619.44,3344.18 v 20.89 c 0,8.84 -1.67,15.35 -5,19.57 -3.34,4.23 -8.43,6.34 -15.3,6.34 -6.86,0 -11.98,-2.11 -15.31,-6.34 -3.34,-4.22 -5,-10.73 -5,-19.57 v -20.89 c 0,-9.01 1.63,-15.6 4.86,-19.72 3.24,-4.11 8.39,-6.17 15.45,-6.17 7.06,0 12.22,2.06 15.45,6.17 3.24,4.12 4.85,10.71 4.85,19.72 m -75.62,0.88 v 19.13 c 0,17.46 4.8,30.96 14.41,40.46 9.62,9.52 23.25,14.29 40.91,14.29 17.66,0 31.29,-4.77 40.91,-14.29 9.6,-9.5 14.41,-23 14.41,-40.46 v -19.13 c 0,-17.46 -4.81,-30.94 -14.41,-40.46 -9.62,-9.52 -23.25,-14.26 -40.91,-14.26 -17.66,0 -31.29,4.74 -40.91,14.26 -9.61,9.52 -14.41,23 -14.41,40.46"
         style="fill:#231f20;fill-opacity:1;fill-rule:nonzero;stroke:none"
         transform="matrix(0.13333333,0,0,-0.13333333,0,793.70667)" /><path
         id="path43"
         d="m 4708.32,3415.69 5.88,-19.71 c 3.92,7.25 8.92,12.75 15.01,16.48 6.07,3.72 13.05,5.59 20.89,5.59 2.16,0 4.41,-0.15 6.77,-0.45 2.36,-0.29 4.81,-0.73 7.36,-1.31 l -5.89,-34.14 c -2.55,0.39 -4.71,0.68 -6.48,0.88 -1.76,0.19 -3.52,0.3 -5.29,0.3 -9.02,0 -16.14,-2.95 -21.34,-8.83 -5.19,-5.89 -7.79,-14.33 -7.79,-25.31 v -55.62 h -35.31 v 122.12 h 26.19"
         style="fill:#231f20;fill-opacity:1;fill-rule:nonzero;stroke:none"
         transform="matrix(0.13333333,0,0,-0.13333333,0,793.70667)" /><path
         id="path44"
         d="m 4818.37,3317.7 c 7.26,0 12.9,2.26 16.92,6.77 4.03,4.51 5.94,10.89 5.75,19.13 v 7.64 c -13.75,-0.58 -23.16,-2.35 -28.26,-5.29 -5.1,-2.95 -7.65,-7.75 -7.65,-14.42 0,-4.32 1.18,-7.7 3.53,-10.15 2.36,-2.46 5.6,-3.68 9.71,-3.68 m -30.3,66.21 -10.31,24.72 c 7.85,3.34 15.65,5.89 23.4,7.65 7.75,1.77 15.34,2.65 22.8,2.65 16.29,0 28.99,-3.97 38.11,-11.91 9.12,-7.95 13.69,-19.09 13.69,-33.41 v -80.04 h -26.19 l -3.83,13.24 c -4.12,-5.29 -9.27,-9.37 -15.45,-12.22 -6.18,-2.84 -13,-4.25 -20.45,-4.25 -12.36,0 -22.03,3.08 -28.99,9.26 -6.96,6.19 -10.44,14.86 -10.44,26.05 0,15.3 5.88,26.78 17.66,34.42 11.75,7.66 29.52,11.67 53.26,12.07 v 1.47 c 0,5.89 -1.77,10.4 -5.3,13.54 -3.53,3.14 -8.74,4.71 -15.6,4.71 -5.1,0 -10.25,-0.64 -15.45,-1.91 -5.19,-1.28 -10.84,-3.29 -16.91,-6.04"
         style="fill:#231f20;fill-opacity:1;fill-rule:nonzero;stroke:none"
         transform="matrix(0.13333333,0,0,-0.13333333,0,793.70667)" /><path
         id="path45"
         d="m 4906.36,3415.69 h 35.31 v -122.12 h -35.31 z m 17.65,14.13 -26.19,26.19 26.19,26.19 26.2,-26.19 -26.2,-26.19"
         style="fill:#231f20;fill-opacity:1;fill-rule:nonzero;stroke:none"
         transform="matrix(0.13333333,0,0,-0.13333333,0,793.70667)" /><path
         id="path46"
         d="m 5001.41,3415.69 3.81,-13.24 c 4.31,5.5 9.52,9.62 15.6,12.36 6.08,2.75 12.85,4.12 20.31,4.12 14.71,0 25.84,-4.75 33.39,-14.28 7.56,-9.51 11.34,-23.19 11.34,-41.04 v -70.04 h -35.31 v 70.04 c 0,8.63 -1.44,14.9 -4.27,18.83 -2.85,3.92 -7.51,5.89 -13.98,5.89 -6.87,0 -12.21,-2.11 -16.04,-6.33 -3.82,-4.22 -5.73,-10.15 -5.73,-17.8 v -70.63 h -35.32 v 122.12 h 26.2"
         style="fill:#231f20;fill-opacity:1;fill-rule:nonzero;stroke:none"
         transform="matrix(0.13333333,0,0,-0.13333333,0,793.70667)" /><path
         id="path47"
         d="m 5187.38,3366.84 v 1.18 c 0,8.63 -1.72,15.01 -5.14,19.13 -3.44,4.11 -8.59,6.17 -15.46,6.17 -6.66,0 -11.72,-2.1 -15.15,-6.32 -3.44,-4.22 -5.15,-10.55 -5.15,-18.98 v -1.18 z m -75.92,-21.78 v 19.13 c 0,17.46 4.81,30.95 14.42,40.46 9.62,9.52 23.25,14.28 40.9,14.28 17.47,0 31.05,-4.9 40.77,-14.72 9.71,-9.81 14.56,-23.64 14.56,-41.49 0,-3.53 -0.05,-6.72 -0.15,-9.56 -0.09,-2.84 -0.34,-6.53 -0.73,-11.04 h -74.75 c 0,-8.43 2.06,-14.66 6.19,-18.68 4.11,-4.02 10.48,-6.03 19.11,-6.03 4.52,0 9.82,0.68 15.91,2.06 6.07,1.36 11.27,3.03 15.59,5 l 11.48,-24.72 c -6.88,-3.34 -13.89,-5.74 -21.05,-7.21 -7.16,-1.47 -15.35,-2.2 -24.57,-2.2 -18.64,0 -32.91,4.7 -42.81,14.12 -9.91,9.41 -14.87,22.95 -14.87,40.6"
         style="fill:#231f20;fill-opacity:1;fill-rule:nonzero;stroke:none"
         transform="matrix(0.13333333,0,0,-0.13333333,0,793.70667)" /><path
         id="path48"
         d="m 5252.13,3356.24 c -4.12,3.34 -7.22,7.11 -9.28,11.34 -2.06,4.22 -3.08,8.87 -3.08,13.97 0,11.38 4.36,20.46 13.09,27.22 8.73,6.78 19.77,10.17 33.11,10.17 7.84,0 15.64,-0.88 23.4,-2.66 7.74,-1.76 14.75,-4.32 21.03,-7.66 l -12.66,-26.48 c -5.48,2.74 -10.79,4.8 -15.88,6.18 -5.1,1.38 -9.82,2.07 -14.13,2.07 -4.31,0 -7.55,-0.69 -9.71,-2.07 -2.16,-1.38 -3.23,-3.33 -3.23,-5.88 0,-1.97 0.78,-3.57 2.35,-4.86 1.57,-1.28 7.06,-4.26 16.47,-8.98 15.7,-7.63 25.8,-14.25 30.32,-19.86 4.51,-5.59 6.75,-12.99 6.75,-22.22 0,-11.17 -4.35,-20.01 -13.08,-26.48 -8.73,-6.48 -20.06,-9.7 -33.99,-9.7 -8.04,0 -15.54,0.58 -22.52,1.75 -6.96,1.19 -14.65,3.34 -23.09,6.47 l 10.3,27.68 c 6.48,-2.55 12.51,-4.41 18.1,-5.61 5.59,-1.17 10.94,-1.75 16.03,-1.75 4.32,0 7.76,0.78 10.3,2.36 2.54,1.55 3.83,3.61 3.83,6.17 0,2.16 -0.74,3.98 -2.2,5.45 -1.48,1.48 -7.02,4.45 -16.64,8.98 -8.43,3.92 -14.22,6.8 -17.36,8.67 -3.13,1.86 -5.88,3.78 -8.23,5.73"
         style="fill:#231f20;fill-opacity:1;fill-rule:nonzero;stroke:none"
         transform="matrix(0.13333333,0,0,-0.13333333,0,793.70667)" /><path
         id="path49"
         d="m 1014.34,2942.79 v 126.83 h 19.41 v -174.8 h -15 l -3.82,12.95 c -3.92,-5.3 -8.73,-9.32 -14.42,-12.07 -5.697,-2.74 -12.065,-4.11 -19.123,-4.11 -13.942,0 -24.684,4.21 -32.231,12.65 -7.551,8.44 -11.328,19.91 -11.328,34.43 v 33.84 c 0,14.72 3.981,26.24 11.918,34.58 7.942,8.34 19.082,12.51 33.399,12.51 3.531,0 7.011,-0.35 10.449,-1.03 3.433,-0.69 7.016,-1.72 10.746,-3.09 l -2.94,-14.72 c -3.533,0.78 -6.482,1.33 -8.834,1.62 -2.363,0.3 -4.621,0.44 -6.769,0.44 -9.418,0 -16.527,-2.54 -21.34,-7.64 -4.809,-5.11 -7.199,-12.66 -7.199,-22.67 v -33.84 c 0,-9.81 2.289,-17.26 6.906,-22.36 4.602,-5.11 11.332,-7.66 20.16,-7.66 9.41,0 16.766,3.05 22.076,9.12 5.28,6.09 7.94,14.43 7.94,25.02"
         style="fill:#231f20;fill-opacity:1;fill-rule:nonzero;stroke:none"
         transform="matrix(0.13333333,0,0,-0.13333333,0,793.70667)" /><path
         id="path50"
         d="m 1146.76,2963.98 v 7.36 c 0,10.39 -2.45,18.29 -7.35,23.69 -4.91,5.4 -11.97,8.09 -21.19,8.09 -9.22,0 -16.29,-2.69 -21.19,-8.09 -4.9,-5.4 -7.35,-13.3 -7.35,-23.69 v -7.36 z m -76.51,-25.31 v 32.67 c 0,15.1 4.17,26.93 12.51,35.46 8.34,8.54 20.16,12.8 35.46,12.8 15.3,0 27.12,-4.26 35.46,-12.8 8.33,-8.53 12.5,-20.36 12.5,-35.46 0,-5.31 -0.05,-9.82 -0.14,-13.54 -0.11,-3.73 -0.35,-7.26 -0.74,-10.59 h -75.62 v -8.54 c 0,-10.4 2.5,-18 7.5,-22.8 5,-4.81 12.99,-7.22 23.98,-7.22 3.92,0 8.49,0.69 13.69,2.06 5.19,1.38 11.22,3.43 18.09,6.19 l 7.36,-16.19 c -7.46,-3.34 -14.23,-5.69 -20.31,-7.07 -6.08,-1.36 -12.36,-2.05 -18.83,-2.05 -16.88,0 -29.58,3.92 -38.11,11.77 -8.53,7.84 -12.8,19.61 -12.8,35.31"
         style="fill:#231f20;fill-opacity:1;fill-rule:nonzero;stroke:none"
         transform="matrix(0.13333333,0,0,-0.13333333,0,793.70667)" /><path
         id="path51"
         d="m 1259.76,3069.62 h 19.42 v -174.8 h -19.42 v 174.8"
         style="fill:#231f20;fill-opacity:1;fill-rule:nonzero;stroke:none"
         transform="matrix(0.13333333,0,0,-0.13333333,0,793.70667)" /><path
         id="path52"
         d="m 1350.1,2908.65 c 9.81,0 17.75,2.71 23.84,8.11 6.08,5.38 9.12,12.89 9.12,22.5 v 15.3 c -20.8,-0.39 -35.07,-2.45 -42.82,-6.18 -7.75,-3.73 -11.62,-10.2 -11.62,-19.42 0,-6.47 1.91,-11.48 5.74,-15.01 3.82,-3.53 9.07,-5.3 15.74,-5.3 m -25.89,86.23 -6.48,15.89 c 8.04,3.53 15.1,5.88 21.19,7.06 6.08,1.18 12.85,1.77 20.31,1.77 13.72,0 24.37,-3.83 31.92,-11.48 7.55,-7.65 11.33,-18.34 11.33,-32.07 v -81.23 h -15.01 l -3.82,13.25 c -4.91,-5.7 -10.21,-9.86 -15.89,-12.51 -5.7,-2.65 -11.97,-3.97 -18.84,-3.97 -12.75,0 -22.56,3.28 -29.43,9.86 -6.86,6.58 -10.29,15.75 -10.29,27.51 0,14.13 5.73,24.37 17.21,30.75 11.48,6.38 30.36,9.67 56.65,9.86 v 6.48 c 0,8.83 -2.16,15.45 -6.48,19.86 -4.31,4.41 -10.88,6.62 -19.71,6.62 -5.1,0 -10.2,-0.58 -15.31,-1.77 -5.1,-1.17 -10.88,-3.13 -17.35,-5.88"
         style="fill:#231f20;fill-opacity:1;fill-rule:nonzero;stroke:none"
         transform="matrix(0.13333333,0,0,-0.13333333,0,793.70667)" /><path
         id="path53"
         d="m 1490.18,2946.32 v 19.14 c 0,16.67 4.85,29.97 14.57,39.87 9.71,9.9 23.1,14.86 40.17,14.86 7.06,0 13.92,-0.79 20.59,-2.35 6.67,-1.57 12.46,-3.73 17.37,-6.48 l -12.07,-25.31 c -3.73,1.77 -7.6,3.15 -11.62,4.12 -4.02,0.99 -7.8,1.48 -11.33,1.48 -7.46,0 -13.05,-2.16 -16.78,-6.48 -3.73,-4.31 -5.59,-10.89 -5.59,-19.71 v -19.14 c 0,-8.83 1.86,-15.4 5.59,-19.72 3.73,-4.32 9.52,-6.47 17.37,-6.47 3.13,0 6.76,0.55 10.89,1.62 4.11,1.07 8.72,2.69 13.82,4.85 l 11.78,-25.59 c -6.48,-3.34 -12.71,-5.74 -18.69,-7.21 -5.99,-1.48 -12.21,-2.21 -18.69,-2.21 -18.44,0 -32.61,4.71 -42.52,14.12 -9.91,9.42 -14.86,22.95 -14.86,40.61"
         style="fill:#231f20;fill-opacity:1;fill-rule:nonzero;stroke:none"
         transform="matrix(0.13333333,0,0,-0.13333333,0,793.70667)" /><path
         id="path54"
         d="m 1631.43,3016.95 5.87,-19.71 c 3.94,7.25 8.94,12.75 15.01,16.48 6.08,3.72 13.06,5.59 20.91,5.59 2.16,0 4.41,-0.15 6.76,-0.45 2.35,-0.29 4.81,-0.73 7.35,-1.31 l -5.88,-34.14 c -2.54,0.39 -4.7,0.68 -6.47,0.88 -1.76,0.19 -3.53,0.3 -5.29,0.3 -9.04,0 -16.15,-2.95 -21.35,-8.83 -5.2,-5.89 -7.79,-14.33 -7.79,-25.32 v -55.62 h -35.32 v 122.13 h 26.2"
         style="fill:#231f20;fill-opacity:1;fill-rule:nonzero;stroke:none"
         transform="matrix(0.13333333,0,0,-0.13333333,0,793.70667)" /><path
         id="path55"
         d="m 1772.09,2968.11 v 1.17 c 0,8.63 -1.72,15.01 -5.15,19.13 -3.43,4.11 -8.59,6.17 -15.45,6.17 -6.67,0 -11.72,-2.1 -15.16,-6.32 -3.43,-4.22 -5.14,-10.55 -5.14,-18.98 v -1.17 z m -34.43,63.55 -14.12,21.78 44.14,31.19 16.18,-25.3 z m -41.49,-85.34 v 19.13 c 0,17.46 4.8,30.95 14.42,40.46 9.61,9.52 23.24,14.28 40.9,14.28 17.46,0 31.04,-4.9 40.76,-14.72 9.71,-9.81 14.56,-23.64 14.56,-41.49 0,-3.53 -0.05,-6.71 -0.14,-9.57 -0.1,-2.84 -0.35,-6.52 -0.74,-11.03 h -74.74 c 0,-8.44 2.06,-14.67 6.17,-18.68 4.12,-4.03 10.5,-6.04 19.13,-6.04 4.51,0 9.81,0.7 15.89,2.06 6.08,1.37 11.28,3.04 15.6,5 l 11.48,-24.7 c -6.87,-3.35 -13.88,-5.76 -21.04,-7.22 -7.17,-1.48 -15.36,-2.21 -24.58,-2.21 -18.63,0 -32.91,4.71 -42.81,14.12 -9.91,9.42 -14.86,22.95 -14.86,40.61"
         style="fill:#231f20;fill-opacity:1;fill-rule:nonzero;stroke:none"
         transform="matrix(0.13333333,0,0,-0.13333333,0,793.70667)" /><path
         id="path56"
         d="m 1870.37,2918.95 c 7.26,0 12.9,2.26 16.92,6.77 4.03,4.51 5.94,10.89 5.75,19.13 v 7.64 c -13.74,-0.58 -23.16,-2.34 -28.26,-5.28 -5.1,-2.95 -7.65,-7.76 -7.65,-14.43 0,-4.31 1.18,-7.69 3.53,-10.14 2.36,-2.46 5.6,-3.69 9.71,-3.69 m -30.3,66.23 -10.31,24.7 c 7.85,3.34 15.65,5.9 23.4,7.66 7.75,1.78 15.34,2.66 22.81,2.66 16.28,0 28.98,-3.98 38.1,-11.92 9.12,-7.95 13.69,-19.09 13.69,-33.42 v -80.04 h -26.19 l -3.83,13.25 c -4.12,-5.3 -9.26,-9.38 -15.45,-12.22 -6.18,-2.84 -12.99,-4.26 -20.45,-4.26 -12.36,0 -22.03,3.09 -28.99,9.27 -6.96,6.18 -10.45,14.85 -10.45,26.04 0,15.31 5.89,26.78 17.67,34.43 11.76,7.65 29.52,11.67 53.26,12.07 v 1.46 c 0,5.9 -1.77,10.4 -5.3,13.55 -3.53,3.13 -8.73,4.71 -15.6,4.71 -5.1,0 -10.25,-0.64 -15.45,-1.91 -5.19,-1.28 -10.84,-3.3 -16.91,-6.03"
         style="fill:#231f20;fill-opacity:1;fill-rule:nonzero;stroke:none"
         transform="matrix(0.13333333,0,0,-0.13333333,0,793.70667)" /><path
         id="path57"
         d="m 1974.25,3045.49 h 26.79 v -28.54 h 21.76 v -28.54 h -21.76 v -47.97 c 0,-5.69 1.12,-9.86 3.38,-12.51 2.25,-2.65 6.03,-3.98 11.32,-3.98 h 3.69 c 0.87,0 1.8,0.1 2.79,0.29 l 2.94,-30.89 c -2.16,-0.39 -4.26,-0.64 -6.32,-0.73 -2.06,-0.1 -4.08,-0.15 -6.04,-0.15 -15.1,0 -26.73,4.17 -34.87,12.51 -8.14,8.33 -12.22,19.86 -12.22,34.57 v 48.86 h -21.76 v 28.54 h 5.88 c 8.43,0 14.37,2.2 17.8,6.62 3.44,4.41 5.64,11.72 6.62,21.92"
         style="fill:#231f20;fill-opacity:1;fill-rule:nonzero;stroke:none"
         transform="matrix(0.13333333,0,0,-0.13333333,0,793.70667)" /><path
         id="path58"
         d="m 2049.58,3016.95 h 35.31 v -122.12 h -35.31 z m 17.66,14.13 -26.2,26.19 26.2,26.19 26.19,-26.19 -26.19,-26.19"
         style="fill:#231f20;fill-opacity:1;fill-rule:nonzero;stroke:none"
         transform="matrix(0.13333333,0,0,-0.13333333,0,793.70667)" /><path
         id="path59"
         d="m 2188.18,2945.44 v 20.89 c 0,8.83 -1.67,15.36 -5,19.57 -3.34,4.22 -8.43,6.33 -15.29,6.33 -6.87,0 -11.99,-2.11 -15.32,-6.33 -3.34,-4.21 -5,-10.74 -5,-19.57 v -20.89 c 0,-9.02 1.63,-15.6 4.86,-19.72 3.24,-4.12 8.4,-6.18 15.46,-6.18 7.06,0 12.2,2.06 15.44,6.18 3.24,4.12 4.85,10.7 4.85,19.72 m -75.62,0.88 v 19.13 c 0,17.47 4.8,30.95 14.41,40.46 9.62,9.53 23.25,14.28 40.92,14.28 17.64,0 31.28,-4.75 40.9,-14.28 9.6,-9.51 14.41,-22.99 14.41,-40.46 v -19.13 c 0,-17.46 -4.81,-30.95 -14.41,-40.46 -9.62,-9.52 -23.26,-14.27 -40.9,-14.27 -17.67,0 -31.3,4.75 -40.92,14.27 -9.61,9.51 -14.41,23 -14.41,40.46"
         style="fill:#231f20;fill-opacity:1;fill-rule:nonzero;stroke:none"
         transform="matrix(0.13333333,0,0,-0.13333333,0,793.70667)" /><path
         id="path60"
         d="m 2277.06,3016.95 3.82,-13.24 c 4.31,5.5 9.51,9.62 15.59,12.36 6.09,2.75 12.86,4.12 20.32,4.12 14.7,0 25.84,-4.75 33.39,-14.28 7.55,-9.51 11.33,-23.19 11.33,-41.04 v -70.05 h -35.31 v 70.05 c 0,8.63 -1.43,14.9 -4.27,18.83 -2.85,3.92 -7.51,5.89 -13.97,5.89 -6.88,0 -12.22,-2.11 -16.05,-6.33 -3.81,-4.22 -5.73,-10.15 -5.73,-17.8 v -70.64 h -35.31 v 122.13 h 26.19"
         style="fill:#231f20;fill-opacity:1;fill-rule:nonzero;stroke:none"
         transform="matrix(0.13333333,0,0,-0.13333333,0,793.70667)" /><path
         id="path61"
         d="m 2526.88,2963.98 v 7.36 c 0,10.39 -2.46,18.29 -7.35,23.69 -4.92,5.4 -11.99,8.09 -21.2,8.09 -9.21,0 -16.27,-2.69 -21.19,-8.09 -4.9,-5.4 -7.35,-13.3 -7.35,-23.69 v -7.36 z m -76.51,-25.31 v 32.67 c 0,15.1 4.17,26.93 12.51,35.46 8.34,8.54 20.15,12.8 35.45,12.8 15.3,0 27.11,-4.26 35.45,-12.8 8.34,-8.53 12.51,-20.36 12.51,-35.46 0,-5.31 -0.04,-9.82 -0.13,-13.54 -0.11,-3.73 -0.34,-7.26 -0.74,-10.59 h -75.63 v -8.54 c 0,-10.4 2.5,-18 7.5,-22.8 5,-4.81 12.99,-7.22 23.98,-7.22 3.93,0 8.49,0.69 13.7,2.06 5.19,1.38 11.23,3.43 18.09,6.19 l 7.36,-16.19 c -7.47,-3.34 -14.22,-5.69 -20.31,-7.07 -6.09,-1.36 -12.36,-2.05 -18.84,-2.05 -16.87,0 -29.58,3.92 -38.11,11.77 -8.54,7.84 -12.79,19.61 -12.79,35.31"
         style="fill:#231f20;fill-opacity:1;fill-rule:nonzero;stroke:none"
         transform="matrix(0.13333333,0,0,-0.13333333,0,793.70667)" /><path
         id="path62"
         d="m 2594.55,3044.32 h 14.42 v -27.96 h 24.72 v -16.47 h -24.72 v -67.69 c 0,-7.66 1.32,-13.25 3.98,-16.78 2.64,-3.53 6.91,-5.28 12.79,-5.28 0.99,0 2.16,0.04 3.54,0.13 1.36,0.1 2.74,0.25 4.12,0.44 l 1.77,-17.36 c -1.58,-0.19 -3.3,-0.34 -5.16,-0.44 -1.87,-0.1 -3.58,-0.15 -5.15,-0.15 -11.77,0 -20.59,3.28 -26.48,9.88 -5.89,6.55 -8.83,16.41 -8.83,29.56 v 67.69 h -24.72 v 16.47 c 11.38,0 18.88,1.92 22.51,5.74 3.63,3.83 6.04,11.23 7.21,22.22"
         style="fill:#231f20;fill-opacity:1;fill-rule:nonzero;stroke:none"
         transform="matrix(0.13333333,0,0,-0.13333333,0,793.70667)" /><path
         id="path63"
         d="m 2796.72,2942.79 v 126.83 h 19.42 v -174.8 h -15.01 l -3.81,12.95 c -3.94,-5.3 -8.74,-9.32 -14.43,-12.07 -5.69,-2.74 -12.07,-4.11 -19.13,-4.11 -13.92,0 -24.67,4.21 -32.22,12.65 -7.55,8.44 -11.33,19.91 -11.33,34.43 v 33.84 c 0,14.72 3.97,26.24 11.92,34.58 7.95,8.34 19.07,12.51 33.4,12.51 3.53,0 7.01,-0.35 10.45,-1.03 3.43,-0.69 7.01,-1.72 10.74,-3.09 l -2.95,-14.72 c -3.52,0.78 -6.47,1.33 -8.83,1.62 -2.35,0.3 -4.61,0.44 -6.76,0.44 -9.42,0 -16.53,-2.54 -21.33,-7.64 -4.82,-5.11 -7.22,-12.66 -7.22,-22.67 v -33.84 c 0,-9.81 2.3,-17.26 6.91,-22.36 4.61,-5.11 11.34,-7.66 20.17,-7.66 9.41,0 16.77,3.05 22.07,9.12 5.29,6.09 7.94,14.43 7.94,25.02"
         style="fill:#231f20;fill-opacity:1;fill-rule:nonzero;stroke:none"
         transform="matrix(0.13333333,0,0,-0.13333333,0,793.70667)" /><path
         id="path64"
         d="m 2929.14,2963.98 v 7.36 c 0,10.39 -2.45,18.29 -7.35,23.69 -4.91,5.4 -11.98,8.09 -21.19,8.09 -9.22,0 -16.28,-2.69 -21.19,-8.09 -4.91,-5.4 -7.36,-13.3 -7.36,-23.69 v -7.36 z m -76.51,-25.31 v 32.67 c 0,15.1 4.17,26.93 12.51,35.46 8.34,8.54 20.15,12.8 35.46,12.8 15.3,0 27.11,-4.26 35.45,-12.8 8.34,-8.53 12.51,-20.36 12.51,-35.46 0,-5.31 -0.05,-9.82 -0.14,-13.54 -0.1,-3.73 -0.34,-7.26 -0.74,-10.59 h -75.63 v -8.54 c 0,-10.4 2.5,-18 7.51,-22.8 5,-4.81 12.99,-7.22 23.98,-7.22 3.92,0 8.48,0.69 13.69,2.06 5.19,1.38 11.23,3.43 18.09,6.19 l 7.36,-16.19 c -7.46,-3.34 -14.22,-5.69 -20.31,-7.07 -6.08,-1.36 -12.35,-2.05 -18.83,-2.05 -16.87,0 -29.58,3.92 -38.11,11.77 -8.54,7.84 -12.8,19.61 -12.8,35.31"
         style="fill:#231f20;fill-opacity:1;fill-rule:nonzero;stroke:none"
         transform="matrix(0.13333333,0,0,-0.13333333,0,793.70667)" /><path
         id="path65"
         d="m 3042.14,3069.62 h 19.42 v -174.8 h -19.42 v 174.8"
         style="fill:#231f20;fill-opacity:1;fill-rule:nonzero;stroke:none"
         transform="matrix(0.13333333,0,0,-0.13333333,0,793.70667)" /><path
         id="path66"
         d="m 3132.48,2908.65 c 9.8,0 17.75,2.71 23.84,8.11 6.07,5.38 9.12,12.89 9.12,22.5 v 15.3 c -20.8,-0.39 -35.07,-2.45 -42.81,-6.18 -7.76,-3.73 -11.63,-10.2 -11.63,-19.42 0,-6.47 1.91,-11.48 5.74,-15.01 3.83,-3.53 9.07,-5.3 15.74,-5.3 m -25.9,86.23 -6.47,15.89 c 8.04,3.53 15.1,5.88 21.19,7.06 6.07,1.18 12.85,1.77 20.3,1.77 13.73,0 24.38,-3.83 31.93,-11.48 7.55,-7.65 11.33,-18.34 11.33,-32.07 v -81.23 h -15.01 l -3.83,13.25 c -4.9,-5.7 -10.19,-9.86 -15.88,-12.51 -5.7,-2.65 -11.97,-3.97 -18.83,-3.97 -12.77,0 -22.57,3.28 -29.44,9.86 -6.86,6.58 -10.29,15.75 -10.29,27.51 0,14.13 5.73,24.37 17.21,30.75 11.48,6.38 30.36,9.67 56.65,9.86 v 6.48 c 0,8.83 -2.16,15.45 -6.48,19.86 -4.31,4.41 -10.88,6.62 -19.71,6.62 -5.1,0 -10.21,-0.58 -15.31,-1.77 -5.09,-1.17 -10.88,-3.13 -17.36,-5.88"
         style="fill:#231f20;fill-opacity:1;fill-rule:nonzero;stroke:none"
         transform="matrix(0.13333333,0,0,-0.13333333,0,793.70667)" /><path
         id="path67"
         d="m 5389.56,2957.51 c -4.12,3.33 -7.21,7.1 -9.27,11.32 -2.06,4.22 -3.08,8.88 -3.08,13.98 0,11.38 4.35,20.46 13.09,27.22 8.72,6.77 19.76,10.16 33.11,10.16 7.84,0 15.63,-0.89 23.39,-2.65 7.75,-1.77 14.76,-4.32 21.04,-7.65 l -12.66,-26.49 c -5.49,2.75 -10.79,4.81 -15.88,6.18 -5.11,1.37 -9.82,2.06 -14.12,2.06 -4.33,0 -7.56,-0.69 -9.72,-2.06 -2.16,-1.37 -3.24,-3.33 -3.24,-5.88 0,-1.97 0.79,-3.59 2.36,-4.86 1.56,-1.28 7.06,-4.26 16.47,-8.98 15.7,-7.64 25.81,-14.26 30.32,-19.86 4.51,-5.59 6.76,-13 6.76,-22.22 0,-11.18 -4.36,-20.01 -13.09,-26.48 -8.73,-6.48 -20.06,-9.71 -34,-9.71 -8.03,0 -15.54,0.59 -22.5,1.76 -6.97,1.18 -14.67,3.34 -23.1,6.47 l 10.29,27.67 c 6.48,-2.55 12.51,-4.41 18.11,-5.6 5.58,-1.17 10.94,-1.75 16.03,-1.75 4.32,0 7.75,0.78 10.31,2.35 2.53,1.56 3.81,3.62 3.81,6.18 0,2.15 -0.73,3.97 -2.2,5.44 -1.47,1.48 -7.01,4.46 -16.61,8.98 -8.45,3.92 -14.24,6.81 -17.38,8.68 -3.14,1.86 -5.89,3.78 -8.24,5.74 m -64.74,10.59 v 1.18 c 0,8.63 -1.71,15.01 -5.14,19.12 -3.44,4.12 -8.59,6.19 -15.45,6.19 -6.68,0 -11.73,-2.11 -15.16,-6.33 -3.44,-4.22 -5.14,-10.55 -5.14,-18.98 v -1.18 z m -75.92,-21.77 v 19.12 c 0,17.46 4.8,30.95 14.42,40.46 9.61,9.52 23.25,14.28 40.91,14.28 17.45,0 31.04,-4.91 40.75,-14.72 9.72,-9.81 14.57,-23.64 14.57,-41.49 0,-3.53 -0.05,-6.72 -0.15,-9.57 -0.1,-2.84 -0.35,-6.52 -0.74,-11.03 h -74.73 c 0,-8.44 2.05,-14.67 6.17,-18.68 4.12,-4.03 10.51,-6.04 19.13,-6.04 4.51,0 9.8,0.69 15.89,2.06 6.08,1.37 11.28,3.04 15.59,5 l 11.48,-24.71 c -6.87,-3.34 -13.88,-5.75 -21.04,-7.21 -7.17,-1.48 -15.35,-2.21 -24.57,-2.21 -18.64,0 -32.92,4.71 -42.82,14.12 -9.9,9.42 -14.86,22.96 -14.86,40.62 m -62.97,0 v 70.62 h 35.31 v -122.13 h -26.19 l -3.83,13.25 c -4.32,-5.5 -9.51,-9.61 -15.59,-12.36 -6.09,-2.75 -12.86,-4.12 -20.31,-4.12 -14.71,0 -25.85,4.76 -33.4,14.27 -7.55,9.51 -11.31,23.2 -11.31,41.05 v 70.04 h 35.3 v -70.04 c 0,-8.63 1.41,-14.91 4.27,-18.83 2.84,-3.93 7.5,-5.88 13.97,-5.88 6.88,0 12.22,2.1 16.05,6.32 3.81,4.21 5.73,10.15 5.73,17.81 m -217.18,-2.95 v 20.89 c 0,16.68 4.17,30.17 12.51,40.47 8.34,10.29 19.77,15.45 34.29,15.45 7.84,0 14.61,-1.38 20.3,-4.13 5.68,-2.74 10.39,-6.86 14.12,-12.35 l 3.83,13.24 h 26.19 v -175.09 h -35.31 v 123.59 c 0,7.46 -1.82,13.34 -5.45,17.66 -3.62,4.31 -8.49,6.47 -14.56,6.47 -6.88,0 -12.02,-2.11 -15.45,-6.32 -3.44,-4.23 -5.16,-10.55 -5.16,-18.99 v -20.89 c 0,-7.46 1.38,-13 4.12,-16.62 2.75,-3.64 7.06,-5.45 12.95,-5.45 1.58,0 3.14,0.15 4.71,0.44 1.57,0.29 3.54,0.74 5.89,1.33 l 7.35,-25.01 c -4.12,-2.36 -8.23,-4.03 -12.35,-5.01 -4.12,-0.98 -8.44,-1.47 -12.95,-1.47 -14.33,0 -25.41,4.6 -33.25,13.83 -7.84,9.22 -11.78,21.88 -11.78,37.96 m -62.97,73.57 h 35.31 v -122.12 h -35.31 z m 17.66,14.12 -26.19,26.2 26.19,26.19 26.19,-26.19 z m -92.99,14.42 h 26.78 v -28.54 H 4879 v -28.55 h -21.77 v -47.96 c 0,-5.69 1.12,-9.86 3.39,-12.51 2.24,-2.65 6.02,-3.97 11.32,-3.97 h 3.68 c 0.88,0 1.81,0.09 2.8,0.3 l 2.94,-30.91 c -2.16,-0.39 -4.27,-0.63 -6.33,-0.73 -2.06,-0.1 -4.07,-0.15 -6.04,-0.15 -15.1,0 -26.71,4.17 -34.86,12.51 -8.14,8.33 -12.22,19.86 -12.22,34.57 v 48.85 h -21.77 v 28.55 h 5.89 c 8.42,0 14.36,2.21 17.8,6.62 3.44,4.41 5.63,11.72 6.62,21.92 m -120.66,-87.98 c -4.12,3.33 -7.2,7.1 -9.26,11.32 -2.06,4.22 -3.1,8.88 -3.1,13.98 0,11.38 4.37,20.46 13.1,27.22 8.73,6.77 19.76,10.16 33.1,10.16 7.85,0 15.65,-0.89 23.4,-2.65 7.75,-1.77 14.76,-4.32 21.06,-7.65 l -12.67,-26.49 c -5.5,2.75 -10.79,4.81 -15.89,6.18 -5.11,1.37 -9.81,2.06 -14.13,2.06 -4.32,0 -7.55,-0.69 -9.71,-2.06 -2.16,-1.37 -3.24,-3.33 -3.24,-5.88 0,-1.97 0.78,-3.59 2.35,-4.86 1.58,-1.28 7.08,-4.26 16.49,-8.98 15.69,-7.64 25.79,-14.26 30.31,-19.86 4.5,-5.59 6.77,-13 6.77,-22.22 0,-11.18 -4.38,-20.01 -13.1,-26.48 -8.73,-6.48 -20.06,-9.71 -33.99,-9.71 -8.05,0 -15.55,0.59 -22.51,1.76 -6.96,1.18 -14.67,3.34 -23.1,6.47 l 10.3,27.67 c 6.47,-2.55 12.51,-4.41 18.09,-5.6 5.6,-1.17 10.94,-1.75 16.05,-1.75 4.3,0 7.74,0.78 10.29,2.35 2.55,1.56 3.83,3.62 3.83,6.18 0,2.15 -0.73,3.97 -2.21,5.44 -1.47,1.48 -7.01,4.46 -16.62,8.98 -8.44,3.92 -14.23,6.81 -17.36,8.68 -3.15,1.86 -5.89,3.78 -8.25,5.74 m -73.27,59.44 h 35.32 v -122.12 h -35.32 z m 17.66,14.12 -26.19,26.2 26.19,26.19 26.19,-26.19 z m -92.99,14.42 h 26.78 v -28.54 h 21.78 v -28.55 h -21.78 v -47.96 c 0,-5.69 1.12,-9.86 3.38,-12.51 2.25,-2.65 6.03,-3.97 11.34,-3.97 h 3.67 c 0.89,0 1.81,0.09 2.8,0.3 l 2.94,-30.91 c -2.16,-0.39 -4.27,-0.63 -6.33,-0.73 -2.06,-0.1 -4.07,-0.15 -6.03,-0.15 -15.11,0 -26.73,4.17 -34.88,12.51 -8.13,8.33 -12.2,19.86 -12.2,34.57 v 48.85 h -21.78 v 28.55 h 5.89 c 8.43,0 14.36,2.21 17.8,6.62 3.43,4.41 5.64,11.72 6.62,21.92 m -93.29,-28.54 5.89,-19.72 c 3.92,7.26 8.92,12.76 15.01,16.48 6.07,3.73 13.05,5.59 20.89,5.59 2.17,0 4.41,-0.14 6.77,-0.44 2.35,-0.29 4.8,-0.73 7.36,-1.32 l -5.89,-34.14 c -2.55,0.39 -4.71,0.69 -6.47,0.89 -1.77,0.19 -3.54,0.29 -5.3,0.29 -9.03,0 -16.14,-2.94 -21.34,-8.83 -5.2,-5.89 -7.8,-14.32 -7.8,-25.31 v -55.62 h -35.31 v 122.13 z m -114.18,-97.99 c 7.26,0 12.9,2.25 16.92,6.76 4.02,4.51 5.93,10.89 5.75,19.13 v 7.65 c -13.74,-0.59 -23.16,-2.35 -28.26,-5.29 -5.1,-2.94 -7.65,-7.76 -7.65,-14.43 0,-4.31 1.18,-7.69 3.53,-10.14 2.36,-2.46 5.59,-3.68 9.71,-3.68 m -30.31,66.21 -10.29,24.72 c 7.84,3.33 15.64,5.88 23.38,7.65 7.76,1.76 15.36,2.65 22.82,2.65 16.29,0 28.98,-3.97 38.1,-11.92 9.12,-7.95 13.68,-19.09 13.68,-33.4 v -80.05 h -26.19 l -3.82,13.25 c -4.12,-5.3 -9.27,-9.37 -15.45,-12.21 -6.18,-2.84 -12.99,-4.27 -20.45,-4.27 -12.36,0 -22.03,3.09 -28.99,9.27 -6.96,6.18 -10.45,14.86 -10.45,26.04 0,15.31 5.89,26.78 17.66,34.43 11.78,7.65 29.53,11.67 53.27,12.07 v 1.47 c 0,5.88 -1.77,10.39 -5.3,13.53 -3.53,3.14 -8.73,4.72 -15.6,4.72 -5.1,0 -10.25,-0.64 -15.45,-1.92 -5.19,-1.28 -10.84,-3.28 -16.92,-6.03 m -168.32,31.78 3.83,-13.24 c 4.31,5.49 9.51,9.61 15.59,12.35 6.08,2.75 12.85,4.13 20.3,4.13 14.72,0 25.85,-4.76 33.4,-14.28 7.55,-9.51 11.33,-23.2 11.33,-41.05 v -70.04 h -35.31 v 70.04 c 0,8.63 -1.42,14.91 -4.26,18.84 -2.85,3.92 -7.51,5.88 -13.98,5.88 -6.87,0 -12.22,-2.11 -16.04,-6.32 -3.83,-4.23 -5.74,-10.16 -5.74,-17.81 v -70.63 h -35.31 v 122.13 z m -88.87,-71.51 v 20.89 c 0,8.83 -1.67,15.35 -5,19.57 -3.34,4.22 -8.44,6.33 -15.31,6.33 -6.87,0 -11.97,-2.11 -15.3,-6.33 -3.34,-4.22 -5,-10.74 -5,-19.57 v -20.89 c 0,-9.02 1.62,-15.6 4.85,-19.72 3.24,-4.12 8.39,-6.18 15.45,-6.18 7.06,0 12.21,2.06 15.45,6.18 3.24,4.12 4.86,10.7 4.86,19.72 m -75.63,0.89 v 19.12 c 0,17.46 4.8,30.95 14.42,40.46 9.61,9.52 23.25,14.28 40.9,14.28 17.66,0 31.29,-4.76 40.91,-14.28 9.61,-9.51 14.41,-23 14.41,-40.46 v -19.12 c 0,-17.47 -4.8,-30.96 -14.41,-40.47 -9.62,-9.51 -23.25,-14.27 -40.91,-14.27 -17.65,0 -31.29,4.76 -40.9,14.27 -9.62,9.51 -14.42,23 -14.42,40.47 m -62.97,70.62 h 35.31 v -122.12 h -35.31 z m 17.65,14.12 -26.19,26.2 26.19,26.19 26.19,-26.19 z m -100.64,-48.84 20.9,34.72 h 41.19 l -39.43,-56.79 41.79,-65.34 h -41.2 l -25.31,39.15 -22.95,-39.15 h -41.5 l 42.38,62.39 -39.72,59.74 h 41.49 z m -105.64,-14.13 v 1.18 c 0,8.63 -1.72,15.01 -5.15,19.12 -3.44,4.12 -8.59,6.19 -15.45,6.19 -6.67,0 -11.73,-2.11 -15.16,-6.33 -3.43,-4.22 -5.14,-10.55 -5.14,-18.98 v -1.18 z m -75.92,-21.77 v 19.12 c 0,17.46 4.8,30.95 14.41,40.46 9.61,9.52 23.25,14.28 40.91,14.28 17.46,0 31.04,-4.91 40.75,-14.72 9.72,-9.81 14.57,-23.64 14.57,-41.49 0,-3.53 -0.05,-6.72 -0.15,-9.57 -0.1,-2.84 -0.34,-6.52 -0.73,-11.03 h -74.74 c 0,-8.44 2.05,-14.67 6.17,-18.68 4.12,-4.03 10.5,-6.04 19.13,-6.04 4.51,0 9.81,0.69 15.89,2.06 6.08,1.37 11.28,3.04 15.6,5 l 11.48,-24.71 c -6.87,-3.34 -13.88,-5.75 -21.04,-7.21 -7.17,-1.48 -15.36,-2.21 -24.58,-2.21 -18.64,0 -32.91,4.71 -42.82,14.12 -9.9,9.42 -14.85,22.96 -14.85,40.62 m -62.98,123.29 h 35.31 v -174.8 h -35.31 z m -87.11,-52.67 v 4.41 c 0,15.31 4.76,27.71 14.28,37.23 9.51,9.51 22.51,14.27 38.99,14.27 2.35,0 4.9,-0.14 7.65,-0.44 2.74,-0.3 5.2,-0.74 7.35,-1.33 l -4.7,-30.3 c -1.57,0.39 -3.14,0.63 -4.71,0.73 -1.57,0.1 -3.05,0.15 -4.41,0.15 -6.29,0 -11.04,-1.72 -14.28,-5.15 -3.23,-3.43 -4.85,-8.49 -4.85,-15.16 v -4.41 h 27.66 v -28.55 h -27.66 v -93.58 h -35.32 v 93.58 h -21.77 v 28.55 z m -68,-48.85 v 1.18 c 0,8.63 -1.72,15.01 -5.15,19.12 -3.43,4.12 -8.59,6.19 -15.45,6.19 -6.67,0 -11.72,-2.11 -15.16,-6.33 -3.43,-4.22 -5.14,-10.55 -5.14,-18.98 v -1.18 z m -34.43,63.57 -14.12,21.77 44.14,31.19 16.18,-25.3 z m -41.49,-85.34 v 19.12 c 0,17.46 4.8,30.95 14.42,40.46 9.61,9.52 23.24,14.28 40.9,14.28 17.46,0 31.04,-4.91 40.76,-14.72 9.71,-9.81 14.56,-23.64 14.56,-41.49 0,-3.53 -0.05,-6.72 -0.14,-9.57 -0.11,-2.84 -0.35,-6.52 -0.74,-11.03 h -74.74 c 0,-8.44 2.05,-14.67 6.17,-18.68 4.12,-4.03 10.5,-6.04 19.13,-6.04 4.51,0 9.81,0.69 15.89,2.06 6.08,1.37 11.28,3.04 15.6,5 l 11.48,-24.71 c -6.87,-3.34 -13.88,-5.75 -21.05,-7.21 -7.16,-1.48 -15.35,-2.21 -24.57,-2.21 -18.63,0 -32.91,4.71 -42.81,14.12 -9.91,9.42 -14.86,22.96 -14.86,40.62 m -64.71,70.62 5.88,-19.72 c 3.92,7.26 8.92,12.76 15.01,16.48 6.08,3.73 13.04,5.59 20.89,5.59 2.16,0 4.42,-0.14 6.77,-0.44 2.35,-0.29 4.8,-0.73 7.36,-1.32 l -5.89,-34.14 c -2.55,0.39 -4.71,0.69 -6.48,0.89 -1.76,0.19 -3.53,0.29 -5.29,0.29 -9.03,0 -16.14,-2.94 -21.34,-8.83 -5.2,-5.89 -7.79,-14.32 -7.79,-25.31 v -55.62 h -35.32 v 122.13 h 26.2"
         style="fill:#231f20;fill-opacity:1;fill-rule:nonzero;stroke:none"
         transform="matrix(0.13333333,0,0,-0.13333333,0,793.70667)" /><path
         id="path68"
         d="m 5555.24,3069.62 h 9.12 v -200.1 h -9.12 v 200.1"
         style="fill:#231f20;fill-opacity:1;fill-rule:nonzero;stroke:none"
         transform="matrix(0.13333333,0,0,-0.13333333,0,793.70667)" /><path
         id="path69"
         d="m 5686.48,2949.56 h 50.02 l -25.01,70.63 z m -39.72,-54.74 54.14,149.5 h 21.48 l 54.15,-149.5 h -20.6 l -13.54,37.96 h -61.79 l -13.54,-37.96 h -20.3"
         style="fill:#231f20;fill-opacity:1;fill-rule:nonzero;stroke:none"
         transform="matrix(0.13333333,0,0,-0.13333333,0,793.70667)" /><path
         id="path70"
         d="M 5790.65,2950.15 V 2989 c 0,18.83 4.96,33.29 14.86,43.4 9.91,10.1 24.28,15.16 43.11,15.16 7.45,0 14.67,-0.78 21.63,-2.36 6.97,-1.57 13.88,-4.02 20.75,-7.35 l -7.65,-16.48 c -6.67,3.14 -12.75,5.4 -18.25,6.76 -5.49,1.38 -10.99,2.06 -16.48,2.06 -12.76,0 -22.36,-3.47 -28.83,-10.44 -6.48,-6.97 -9.71,-17.21 -9.71,-30.75 v -38.85 c 0,-13.14 3.18,-23.25 9.55,-30.32 6.38,-7.06 15.36,-10.58 26.93,-10.58 6.28,0 12.46,0.78 18.54,2.36 6.08,1.55 12.95,4.2 20.6,7.93 l 7.65,-16.18 c -10.2,-4.71 -18.74,-7.85 -25.6,-9.41 -6.87,-1.58 -14.22,-2.35 -22.07,-2.35 -17.26,0 -30.75,5.19 -40.47,15.59 -9.7,10.39 -14.56,24.71 -14.56,42.96"
         style="fill:#231f20;fill-opacity:1;fill-rule:nonzero;stroke:none"
         transform="matrix(0.13333333,0,0,-0.13333333,0,793.70667)" /><path
         id="path71"
         d="M 5912.19,2950.15 V 2989 c 0,18.83 4.95,33.29 14.85,43.4 9.91,10.1 24.28,15.16 43.12,15.16 7.45,0 14.66,-0.78 21.63,-2.36 6.96,-1.57 13.87,-4.02 20.74,-7.35 l -7.65,-16.48 c -6.67,3.14 -12.75,5.4 -18.25,6.76 -5.49,1.38 -10.99,2.06 -16.47,2.06 -12.77,0 -22.37,-3.47 -28.84,-10.44 -6.48,-6.97 -9.72,-17.21 -9.72,-30.75 v -38.85 c 0,-13.14 3.19,-23.25 9.56,-30.32 6.38,-7.06 15.36,-10.58 26.94,-10.58 6.28,0 12.46,0.78 18.53,2.36 6.08,1.55 12.95,4.2 20.61,7.93 l 7.64,-16.18 c -10.19,-4.71 -18.74,-7.85 -25.59,-9.41 -6.89,-1.58 -14.23,-2.35 -22.07,-2.35 -17.28,0 -30.76,5.19 -40.47,15.59 -9.71,10.39 -14.56,24.71 -14.56,42.96"
         style="fill:#231f20;fill-opacity:1;fill-rule:nonzero;stroke:none"
         transform="matrix(0.13333333,0,0,-0.13333333,0,793.70667)" /><path
         id="path72"
         d="m 6040.78,2894.82 v 149.51 h 42.67 c 16.87,0 29.77,-4.13 38.7,-12.38 8.92,-8.22 13.39,-19.81 13.39,-34.7 v -7.95 c 0,-10.6 -2.11,-19.57 -6.33,-26.94 -4.22,-7.36 -10.25,-12.7 -18.1,-16.04 l 28.55,-51.5 h -21.78 l -25.9,47.97 c -3.73,0 -7.35,0.34 -10.89,1.03 -3.52,0.68 -7.16,1.72 -10.88,3.09 l 2.94,14.71 c 3.53,-0.77 6.48,-1.32 8.83,-1.6 2.36,-0.31 4.61,-0.46 6.77,-0.46 8.83,0 15.59,2.56 20.3,7.67 4.71,5.09 7.06,12.44 7.06,22.07 v 7.95 c 0,10.58 -2.94,18.29 -8.82,23.09 -5.89,4.81 -15.31,7.2 -28.26,7.2 h -18.82 v -132.72 h -19.43"
         style="fill:#231f20;fill-opacity:1;fill-rule:nonzero;stroke:none"
         transform="matrix(0.13333333,0,0,-0.13333333,0,793.70667)" /><path
         id="path73"
         d="m 6189.09,2949.56 h 50.02 l -25.01,70.63 z m -39.72,-54.74 54.14,149.5 h 21.48 l 54.15,-149.5 h -20.6 l -13.54,37.96 h -61.8 l -13.53,-37.96 h -20.3"
         style="fill:#231f20;fill-opacity:1;fill-rule:nonzero;stroke:none"
         transform="matrix(0.13333333,0,0,-0.13333333,0,793.70667)" /><path
         id="path74"
         d="m 6361.53,3069.62 h 9.12 v -200.1 h -9.12 v 200.1"
         style="fill:#231f20;fill-opacity:1;fill-rule:nonzero;stroke:none"
         transform="matrix(0.13333333,0,0,-0.13333333,0,793.70667)" /><path
         id="path75"
         d="m 6557.23,2950.15 v 94.17 h 19.42 v -94.17 c 0,-19.23 -4.62,-33.8 -13.84,-43.7 -9.22,-9.91 -22.75,-14.85 -40.6,-14.85 -18.05,0 -31.63,4.94 -40.75,14.85 -9.14,9.9 -13.7,24.47 -13.7,43.7 v 94.17 h 19.43 v -94.17 c 0,-13.94 2.84,-24.28 8.53,-31.04 5.69,-6.78 14.51,-10.16 26.49,-10.16 11.76,0 20.54,3.38 26.33,10.16 5.79,6.76 8.69,17.1 8.69,31.04"
         style="fill:#231f20;fill-opacity:1;fill-rule:nonzero;stroke:none"
         transform="matrix(0.13333333,0,0,-0.13333333,0,793.70667)" /><path
         id="path76"
         d="m 6614.89,2894.82 v 149.51 h 42.67 c 16.87,0 29.77,-4.13 38.7,-12.38 8.93,-8.22 13.39,-19.81 13.39,-34.7 v -7.95 c 0,-10.6 -2.11,-19.57 -6.33,-26.94 -4.22,-7.36 -10.25,-12.7 -18.1,-16.04 l 28.55,-51.5 h -21.78 l -25.9,47.97 c -3.73,0 -7.35,0.34 -10.88,1.03 -3.53,0.68 -7.16,1.72 -10.89,3.09 l 2.95,14.71 c 3.52,-0.77 6.47,-1.32 8.82,-1.6 2.36,-0.31 4.61,-0.46 6.77,-0.46 8.83,0 15.6,2.56 20.3,7.67 4.71,5.09 7.06,12.44 7.06,22.07 v 7.95 c 0,10.58 -2.93,18.29 -8.82,23.09 -5.89,4.81 -15.31,7.2 -28.26,7.2 h -18.82 v -132.72 h -19.43"
         style="fill:#231f20;fill-opacity:1;fill-rule:nonzero;stroke:none"
         transform="matrix(0.13333333,0,0,-0.13333333,0,793.70667)" /><path
         id="path77"
         d="m 6808.23,3022.25 -6.77,16.18 c 7.65,3.34 14.57,5.7 20.74,7.06 6.19,1.38 12.41,2.06 18.7,2.06 14.31,0 25.45,-3.67 33.39,-11.03 7.94,-7.36 11.92,-17.02 11.92,-28.99 0,-7.25 -2.11,-13.87 -6.33,-19.86 -4.22,-5.99 -9.76,-10.45 -16.62,-13.39 9.61,-2.74 16.93,-7.4 21.93,-13.98 5,-6.58 7.5,-14.86 7.5,-24.87 0,-13.73 -4.56,-24.47 -13.69,-32.22 -9.12,-7.75 -22.02,-11.62 -38.7,-11.62 -5.29,0 -11.33,0.69 -18.1,2.05 -6.76,1.38 -13.87,3.44 -21.33,6.18 l 6.18,16.78 c 7.25,-2.55 13.58,-4.41 18.99,-5.6 5.39,-1.17 10.44,-1.75 15.15,-1.75 10,-0.21 17.85,2 23.54,6.62 5.69,4.6 8.53,11.12 8.53,19.56 0,9.61 -3.48,16.87 -10.44,21.78 -6.97,4.9 -17.41,7.36 -31.35,7.36 l -0.58,15.31 c 11.96,1.75 20.93,4.95 26.92,9.56 5.99,4.61 8.97,10.63 8.97,18.09 0,7.26 -2.4,12.85 -7.2,16.78 -4.8,3.92 -11.43,5.88 -19.87,5.88 -4.5,0 -8.97,-0.49 -13.38,-1.47 -4.42,-0.98 -10.45,-3.14 -18.1,-6.47"
         style="fill:#231f20;fill-opacity:1;fill-rule:nonzero;stroke:none"
         transform="matrix(0.13333333,0,0,-0.13333333,0,793.70667)" /><path
         id="path78"
         d="m 6944.78,2941.9 h 52.67 v 80.94 z m -20.01,0 67.38,102.43 h 23.84 V 2941.9 h 21.19 v -16.76 h -21.19 v -30.32 h -18.54 v 30.32 h -72.68 v 16.76"
         style="fill:#231f20;fill-opacity:1;fill-rule:nonzero;stroke:none"
         transform="matrix(0.13333333,0,0,-0.13333333,0,793.70667)" /><path
         id="path79"
         d="M 7140.46,2950.15 V 2989 c 0,14.32 -2.51,24.82 -7.51,31.49 -5,6.67 -12.8,10.01 -23.39,10.01 -10.6,0 -18.4,-3.34 -23.4,-10.01 -5,-6.67 -7.5,-17.17 -7.5,-31.49 v -38.85 c 0,-14.33 2.43,-24.77 7.36,-31.34 4.9,-6.57 12.74,-9.86 23.54,-9.86 10.78,0 18.62,3.29 23.54,9.86 4.9,6.57 7.36,17.01 7.36,31.34 m -81.22,0 V 2989 c 0,19.61 4.16,34.28 12.5,44 8.34,9.7 20.95,14.56 37.82,14.56 16.87,0 29.47,-4.86 37.81,-14.56 8.33,-9.72 12.5,-24.39 12.5,-44 v -38.85 c 0,-19.62 -4.17,-34.28 -12.5,-44 -8.34,-9.7 -20.94,-14.55 -37.81,-14.55 -16.87,0 -29.48,4.85 -37.82,14.55 -8.34,9.72 -12.5,24.38 -12.5,44"
         style="fill:#231f20;fill-opacity:1;fill-rule:nonzero;stroke:none"
         transform="matrix(0.13333333,0,0,-0.13333333,0,793.70667)" /><path
         id="path80"
         d="m 7202.26,3021.96 -6.78,16.18 c 9.02,3.93 16.48,6.48 22.37,7.66 5.88,1.17 12.36,1.76 19.42,1.76 13.14,0 23.74,-3.64 31.78,-10.89 8.04,-7.26 12.06,-16.77 12.06,-28.55 0,-5.49 -0.83,-10.58 -2.5,-15.29 -1.67,-4.72 -4.26,-9.42 -7.79,-14.13 -2.75,-3.73 -10.11,-11.28 -22.07,-22.67 -14.91,-14.32 -24.28,-23.98 -28.11,-28.98 -3.82,-5.01 -6.71,-10.16 -8.68,-15.45 h 67.98 v -16.78 h -88.28 v 16.78 c 4.31,10.2 9.41,19.12 15.3,26.78 5.88,7.65 15.09,17.16 27.66,28.54 11.78,10.61 19.18,18.59 22.22,24 3.04,5.39 4.56,11.13 4.56,17.2 0,6.87 -2.45,12.27 -7.36,16.19 -4.9,3.92 -11.28,5.88 -19.13,5.88 -4.7,0 -9.41,-0.58 -14.12,-1.76 -4.71,-1.18 -10.89,-3.34 -18.53,-6.47"
         style="fill:#231f20;fill-opacity:1;fill-rule:nonzero;stroke:none"
         transform="matrix(0.13333333,0,0,-0.13333333,0,793.70667)" /></g></g></svg>
