<?xml version="1.0" encoding="utf-8"?>
<!-- Generator: Adobe Illustrator 25.2.3, SVG Export Plug-In . SVG Version: 6.00 Build 0)  -->
<svg version="1.1" id="Calque_1" xmlns="http://www.w3.org/2000/svg" xmlns:xlink="http://www.w3.org/1999/xlink" x="0px" y="0px"
	 viewBox="0 0 306.1 116.4" style="enable-background:new 0 0 306.1 116.4;" xml:space="preserve">
<style type="text/css">
	.st0{fill:blue;}
</style>
<g>
	<g>
		<g>
			<path class="st0" d="M38.4,18.3v12.3c0,5-2.1,8.6-8.2,8.6c-6.2,0-8.2-3.6-8.2-8.6V18.3h4.8v12.3c0,3.4,1.1,4.6,3.4,4.6
				c2.3,0,3.4-1.3,3.4-4.6V18.3H38.4z"/>
			<path class="st0" d="M51.4,21.7c4.6,0,6.1,3.6,6.1,7.5v9.5h-4.8v-9.5c0-2.5-0.8-3.4-2.5-3.4s-3,1-3,3.3v9.6h-4.8V22.2H46l0.5,1.8
				C47.6,22.6,49.2,21.7,51.4,21.7z"/>
			<path class="st0" d="M64.1,13.1l3.6,3.6l-3.6,3.6l-3.6-3.6L64.1,13.1z M66.5,22.2v16.6h-4.8V22.2H66.5z"/>
			<path class="st0" d="M86.3,22.2l-5.5,16.6h-6.4L69,22.2h5l3.7,11.9l3.7-11.9H86.3z"/>
			<path class="st0" d="M95.4,21.7c4.6,0,7.5,2.6,7.5,7.6c0,1.2,0,1.8-0.1,2.8H92.7c0,2.2,1.1,3.4,3.4,3.4c1.4,0,3.4-0.6,4.3-1
				l1.6,3.4c-1.6,0.8-3.4,1.3-6.2,1.3c-5,0-7.8-2.6-7.8-7.4v-2.6C87.9,24.3,90.7,21.7,95.4,21.7z M95.4,25.2c-1.8,0-2.8,1.2-2.8,3.4
				v0.2h5.6v-0.2C98.2,26.4,97.3,25.2,95.4,25.2z"/>
			<path class="st0" d="M115.7,21.9c0.6,0,1.2,0.1,1.9,0.2l-0.8,4.6c-0.4-0.1-0.9-0.2-1.6-0.2c-1.9,0-4,1-4,4.6v7.6h-4.8V22.2h3.6
				l0.8,2.7C111.8,22.9,113.5,21.9,115.7,21.9z"/>
			<path class="st0" d="M125.1,21.7c2.1,0,4.4,0.5,6,1.4l-1.7,3.6c-1-0.5-2.6-1.1-4.1-1.1c-1.3,0-1.8,0.4-1.8,1.1s0.4,0.8,2.6,1.9
				c3.5,1.7,5,2.8,5,5.7c0,3.6-3.3,4.9-6.4,4.9c-2.7,0-4.4-0.5-6.2-1.1l1.4-3.8c1.6,0.6,3.1,1,4.6,1c1.2,0,1.9-0.4,1.9-1.2
				c0-0.8-0.7-1.1-2.6-2c-2.6-1.2-5.2-2.3-5.2-5.4C118.8,23.4,121.9,21.7,125.1,21.7z"/>
			<path class="st0" d="M137,13.1l3.6,3.6l-3.6,3.6l-3.6-3.6L137,13.1z M139.4,22.2v16.6h-4.8V22.2H139.4z"/>
			<path class="st0" d="M149.9,18.3v3.9h3v3.9h-3v6.5c0,1.8,0.8,2.2,2,2.2c0.3,0,0.5,0,0.9,0l0.4,4.2c-0.6,0.1-1.2,0.1-1.7,0.1
				c-4.5,0-6.4-2.8-6.4-6.4v-6.6h-3v-3.9h0.8c1.6,0,3-0.3,3.3-3.9L149.9,18.3L149.9,18.3z"/>
			<path class="st0" d="M162.7,21.7c4.6,0,7.5,2.6,7.5,7.6c0,1.2,0,1.8-0.1,2.8h-10.2c0,2.2,1.1,3.4,3.4,3.4c1.4,0,3.4-0.6,4.3-1
				l1.6,3.4c-1.6,0.8-3.4,1.3-6.2,1.3c-5,0-7.8-2.6-7.8-7.4v-2.6C155.2,24.3,158,21.7,162.7,21.7z M164.9,13l2.2,3.4l-6.3,3.8
				l-1.9-3L164.9,13z M162.7,25.2c-1.8,0-2.8,1.2-2.8,3.4v0.2h5.6v-0.2C165.5,26.4,164.6,25.2,162.7,25.2z"/>
		</g>
		<path class="st0" d="M103.9,72.5v23.8h-2l-0.5-1.8c-1,1.4-2.6,2.2-4.6,2.2c-4.3,0-5.9-3-5.9-6.4v-4.6c0-3.7,2-6.4,6.2-6.4
			c1.1,0,2,0.2,2.9,0.6l-0.4,2c-0.7-0.2-1.4-0.3-2.1-0.3c-2.4,0-3.9,1.3-3.9,4.1v4.6c0,2.8,1.5,4.1,3.7,4.1c2.6,0,4.1-1.8,4.1-4.6
			V72.5H103.9z M115.4,79.3c4.6,0,6.5,2.9,6.5,6.6c0,1.5,0,2.4-0.1,3.3h-10.3v1.2c0,2.8,1.3,4.1,4.3,4.1c1.2,0,2.8-0.5,4.3-1.1
			l1,2.2c-1.4,0.6-3.1,1.2-5.3,1.2c-5.2,0-6.9-2.7-6.9-6.4v-4.4C108.8,82.2,110.8,79.3,115.4,79.3z M115.4,81.5
			c-2.4,0-3.9,1.4-3.9,4.3v1h7.8v-1C119.2,82.9,117.8,81.5,115.4,81.5z M138.8,75.5c2.5,0,4,1,6,2.6c1.6,1.2,2.6,1.7,4.1,1.7
			c1.2,0,2.4-0.4,2.8-3.8h2v3.8h3.4V82h-3.4v9.2c0,2.3,0.8,3,2.3,3c0.3,0,0.7,0,1-0.1l0.2,2.4c-0.4,0-1,0.1-1.4,0.1
			c-3.6,0-4.8-2.3-4.8-5.4V82h-1.5c-2.3,0-3.6-0.4-5.8-2.1c-1.8-1.4-3-2-4.6-2c-2,0-3.3,1.1-3.3,3c0,2.2,1.9,2.9,3.7,3.9
			c3.9,2,6.2,3.3,6.2,6.6c0,3.8-3,5.4-7,5.4c-1.8,0-3.6-0.4-5.8-1.1l0.8-2.3c1.8,0.6,3.3,1,5.1,1c2.4,0,4.2-0.8,4.1-2.9
			c0-2.1-2-2.9-4.3-4.2c-3-1.7-5.6-2.9-5.6-6.2C133.2,77.4,135.8,75.5,138.8,75.5z M168.4,79.3c1.2,0,2.2,0.3,2.8,0.6l-1.1,2.3
			c-0.7-0.3-1.4-0.5-2.2-0.5c-2.2,0-4.1,1.6-4.1,4.8v9.6h-2.6V79.7h2l0.6,2C164.9,80.2,166.4,79.3,168.4,79.3z M179.3,79.3
			c3.9,0,5.9,2.4,5.9,5.9v11h-2l-0.5-1.8c-1.1,1.2-2.5,2.2-4.7,2.2c-3.8,0-5.4-2.2-5.4-5.1c0-4.1,3.4-5.5,10-5.5v-0.9
			c0-2.7-1.5-3.6-3.6-3.6c-1.7,0-3.1,0.5-4.4,1l-0.9-2.2C175.3,79.8,176.8,79.3,179.3,79.3z M182.5,88.1c-5.4,0.1-7.4,0.8-7.4,3.5
			c0,2,1.4,2.8,2.9,2.8c2,0,4.5-1,4.5-4.2V88.1z M194.7,79.3c2,0,3.8,0.4,5.4,1.2l-1,2.2c-1.1-0.5-2.6-1.1-4.4-1.1
			c-1.9,0-2.9,0.8-2.9,2.1c0,1.6,1.4,2,3.7,3.2c3.3,1.6,4.8,2.9,4.8,5.4c0,3-2.6,4.4-5.9,4.4c-2.1,0-3.9-0.5-5.4-1.1l0.8-2.2
			c1.6,0.6,3.1,1,4.6,1c2.4,0,3.3-0.8,3.3-2.1s-0.6-1.9-3.7-3.4c-2.8-1.4-4.8-2.2-4.8-5C189.2,80.9,191.8,79.3,194.7,79.3z
			 M207.2,72.5v17.2c0,2.8,1.5,4.6,4,4.6c2.3,0,3.8-1.2,3.8-4.1v-4.6c0-2.8-1.4-4.1-3.6-4.1c-0.8,0-1.6,0.2-2.2,0.5l-0.9-1.8
			c1-0.6,2.2-1,3.4-1c4.3,0,5.8,3,5.8,6.4v4.6c0,3.4-1.9,6.4-6,6.4c-2,0-3.5-0.8-4.4-2.2l-0.5,1.7h-2V72.5H207.2z M228.7,79.3
			c4.6,0,6.6,2.9,6.6,6.6v4.3c0,3.7-2,6.6-6.6,6.6c-4.6,0-6.6-2.9-6.6-6.6v-4.3C222.1,82.2,224.1,79.3,228.7,79.3z M228.7,81.6
			c-2.5,0-4,1.4-4,4.3v4.3c0,2.9,1.5,4.3,4,4.3c2.5,0,4-1.4,4-4.3v-4.3C232.7,82.9,231.2,81.6,228.7,81.6z M253,79.7v16.5h-2
			l-0.5-1.8c-1,1.4-2.6,2.2-4.6,2.2c-4.3,0-5.9-3-5.9-6.4V79.7h2.6v10.6c0,2.8,1.5,4.1,3.7,4.1c2.6,0,4.1-1.8,4.1-4.6v-10H253z
			 M265.6,79.3c1.2,0,2.2,0.3,2.8,0.6l-1.1,2.3c-0.7-0.3-1.4-0.5-2.2-0.5c-2.2,0-4.1,1.6-4.1,4.8v9.6h-2.6V79.7h2l0.6,2
			C262.1,80.2,263.6,79.3,265.6,79.3z M276.3,79.3c2,0,3.5,0.8,4.4,2.2l0.5-1.7h2v16.8c0,3.9-1.5,7.3-6.8,7.3
			c-1.3,0-2.8-0.3-4.4-0.8l0.8-2.2c1,0.4,2.3,0.7,3.5,0.7c3.3,0,4.2-1.9,4.2-4.9V86.3c0-2.8-1.5-4.6-4-4.6c-2.3,0-3.8,1.2-3.8,4.1
			v4.6c0,2.8,1.5,4.1,3.7,4.1c0.8,0,1.5-0.2,2-0.5l0.9,1.8c-0.9,0.6-2.1,1-3.3,1c-4.3,0-6-3-6-6.4v-4.6
			C270.3,82.3,272.2,79.3,276.3,79.3z"/>
		<path class="st0" d="M306.1,57.5h-45.6V0h-21h-1.4h-24.7H212h-9.4h-1.4h-11.1v0H0v58.9h37.4v57.5h20.4h1.4h10.8v-0.1h236.2V57.5z
			 M259.1,1.4v56.1h-19.6V1.4H259.1z M238.1,1.4v56.1h-24.7V1.4H238.1z M212,1.4v56.1h-9.4V1.4H212z M191.5,1.4h9.7v56.1h-9.7V1.4z
			 M1.4,1.4h188.7v56.1H68.5l-67.1,0V1.4z M38.8,115V58.9h19V115H38.8z M59.1,58.9h9.3V115h-9.3V58.9z M304.7,115H69.9V58.9l234.8,0
			V115z"/>
	</g>
</g>
</svg>
