<?xml version="1.0" encoding="UTF-8"?>
<svg id="Calque_2" xmlns="http://www.w3.org/2000/svg" viewBox="0 0 391.92 198.7">
  <defs>
    <style>
      .cls-1 {
        fill: #1d1d1b;
      }
    </style>
  </defs>
  <g id="Calque_1-2" data-name="Calque_1">
    <g>
      <path class="cls-1" d="M104.53,138.84c-16,0-26.59,11.4-26.59,29.59s9.56,30.05,26.82,30.05c14.74,0,21.53-9.21,23.37-17.5l-13.24-1.61c-1.5,5.87-5.41,7.71-9.9,7.71-6.91,0-11.4-4.14-11.63-14.16h35.92c.23-1.96.35-4.03.35-6.22,0-17.04-10.13-27.86-25.1-27.86ZM93.48,163.36c.11-7.94,4.26-13.12,10.71-13.12,7.14,0,10.25,4.95,10.36,13.12h-21.07Z"/>
      <path class="cls-1" d="M175.56,138.84c-6.1,0-13.01,3.45-15.43,8.86h-.23c-.11-2.42-.23-5.07-.46-7.37h-14.62c.35,5.76.58,12.32.58,17.84v38.68h15.43v-31.31c0-10.59,5.41-14.04,10.48-14.04,3.22,0,5.53,1.38,6.68,3.22,1.38,2.07,1.96,4.72,1.96,8.75v33.39h15.43v-36.03c0-6.33-1.38-11.17-4.03-14.97-2.99-4.26-7.71-7.02-15.77-7.02Z"/>
      <path class="cls-1" d="M32.23,163.59h14.51v1.04c0,11.63-4.26,20.03-14.16,20.03-8.98,0-14.85-7.94-14.85-28.67s5.53-28.78,15.31-28.78c7.48,0,11.17,4.83,11.97,13.7l16.46-2.3c-.69-11.05-8.17-25.44-28.21-25.44C11.63,113.17,0,129.28,0,155.99c0,28.44,13.35,42.71,31.54,42.71,8.17,0,15.2-4.37,18.07-11.97h.23l1.84,10.13h10.13v-45.47h-29.59v12.2Z"/>
      <path class="cls-1" d="M302.77,165.09c-1.61,5.3-2.53,9.09-3.68,14.04h-.23c-1.15-4.95-2.07-8.75-3.68-14.04l-7.83-24.75h-16.46l20.72,56.53h13.93l20.72-56.53h-15.89l-7.6,24.75Z"/>
      <path class="cls-1" d="M361.71,138.84c-16,0-26.59,11.4-26.59,29.59s9.56,30.05,26.82,30.05c14.74,0,21.53-9.21,23.37-17.5l-13.24-1.61c-1.5,5.87-5.41,7.71-9.9,7.71-6.91,0-11.4-4.14-11.63-14.16h35.92c.23-1.96.35-4.03.35-6.22,0-17.04-10.13-27.86-25.1-27.86ZM350.66,163.36c.11-7.94,4.26-13.12,10.71-13.12,7.14,0,10.25,4.95,10.36,13.12h-21.07Z"/>
      <polygon class="cls-1" points="220.92 122.95 250.39 134.46 253.5 128.36 226.44 110.86 220.92 122.95"/>
      <path class="cls-1" d="M237.03,138.84c-16,0-26.59,11.4-26.59,29.59s9.56,30.05,26.82,30.05c14.74,0,21.53-9.21,23.37-17.5l-13.24-1.61c-1.5,5.87-5.41,7.71-9.9,7.71-6.91,0-11.4-4.14-11.63-14.16h35.92c.23-1.96.35-4.03.35-6.22,0-17.04-10.13-27.86-25.1-27.86ZM225.98,163.36c.12-7.94,4.26-13.12,10.71-13.12,7.14,0,10.25,4.95,10.36,13.12h-21.07Z"/>
      <polygon class="cls-1" points="238.58 67.69 204.85 67.69 204.85 46.28 232.36 46.28 232.36 33.04 204.85 33.04 204.85 14.04 238.58 14.04 238.58 0 187.58 0 187.58 81.74 238.58 81.74 238.58 67.69"/>
      <polygon class="cls-1" points="124.38 46.97 147.29 46.97 147.29 81.74 164.56 81.74 164.56 0 147.29 0 147.29 32.93 124.38 32.93 124.38 0 107.11 0 107.11 81.74 124.38 81.74 124.38 46.97"/>
      <path class="cls-1" d="M295.1,66.66l4.03,15.08h18.19L291.53,0h-16.35l-25.67,81.74h17.38l4.14-15.08h24.06ZM278.99,36.84c1.38-5.07,2.88-11.05,4.14-17.15h.12c1.27,6.1,2.88,12.09,4.14,17.04l4.14,16.69h-16.92l4.37-16.58Z"/>
      <rect class="cls-1" x="5.97" y="37.07" width="74.97" height="6.68"/>
      <path class="cls-1" d="M371.89,79.67c14.97-5.41,20.03-20.61,20.03-40.18,0-16.23-5.41-31.54-19.8-37.18-3.8-1.5-8.29-2.3-13.58-2.3h-26.94v81.74h26.82c5.3,0,9.67-.69,13.47-2.07ZM348.75,13.58h8.06c14.62,0,17.73,13.58,17.73,27.28,0,15.66-4.14,27.28-16.12,27.28h-9.67V13.58Z"/>
    </g>
  </g>
</svg>